<svg width="618" height="353" viewBox="0 0 618 353" fill="none" xmlns="http://www.w3.org/2000/svg">
<g clip-path="url(#clip0)">
<path d="M463.473 0.000554145H339.657C333.682 0.000551856 327.885 2.03478 323.219 5.76887C318.553 9.50295 315.295 14.7147 313.981 20.5473L251.419 298.242C250.737 301.271 250.725 304.413 251.384 307.447C252.043 310.481 253.358 313.334 255.235 315.806C257.113 318.278 259.508 320.309 262.253 321.757C264.997 323.204 268.025 324.034 271.124 324.187L398.408 330.462C405.223 330.798 411.928 328.641 417.271 324.394C422.615 320.146 426.231 314.098 427.446 307.379L462.934 111.045L465.574 111.8L472.365 74.5874L469.647 73.9075L479.553 19.1038C479.978 16.7565 479.879 14.3443 479.265 12.0394C478.651 9.73448 477.536 7.5935 476.001 5.7691C474.465 3.9447 472.546 2.4818 470.38 1.4847C468.215 0.487594 465.856 -0.0191645 463.473 0.000554145Z" fill="#3F3D56"/>
<path d="M355.957 5.98731H341.504C337.354 5.98731 333.328 7.40785 330.095 10.0131C326.863 12.6184 324.618 16.2517 323.733 20.3098L263.682 295.739C263.337 297.325 263.337 298.967 263.683 300.552C264.03 302.138 264.714 303.63 265.689 304.927C266.665 306.224 267.909 307.294 269.335 308.066C270.762 308.838 272.339 309.292 273.957 309.398L400.829 317.719C404.408 317.954 407.948 316.862 410.774 314.651C413.6 312.44 415.513 309.265 416.149 305.733L467.391 21.0497C467.722 19.2071 467.646 17.3141 467.166 15.5043C466.687 13.6945 465.817 12.0121 464.617 10.5756C463.417 9.13921 461.917 7.98382 460.222 7.19101C458.527 6.39821 456.679 5.98731 454.808 5.98731H441.097C439.77 5.98731 438.48 6.42509 437.427 7.23289C436.373 8.04068 435.616 9.17342 435.271 10.4557C434.966 11.5878 434.297 12.5878 433.367 13.3009C432.437 14.0141 431.298 14.4006 430.127 14.4006H365.036C362.742 14.4006 360.533 13.534 358.849 11.9742C357.166 10.4144 356.133 8.27625 355.957 5.9873L355.957 5.98731Z" fill="#6C63FF"/>
<path d="M539.343 244.94C519.545 276.247 525.622 315.639 525.622 315.639C525.622 315.639 563.799 304.273 583.597 272.966C603.395 241.66 597.318 202.268 597.318 202.268C597.318 202.268 559.141 213.633 539.343 244.94Z" fill="#D0CDE1"/>
<path d="M554.607 250.22C553.512 287.253 526.45 316.499 526.45 316.499C526.45 316.499 501.163 285.703 502.258 248.67C503.353 211.637 530.415 182.391 530.415 182.391C530.415 182.391 555.701 213.187 554.607 250.22Z" fill="#6C63FF"/>
<path d="M59.6668 203.512C65.919 203.512 70.9874 200.06 70.9874 195.801C70.9874 191.542 65.919 188.09 59.6668 188.09C53.4146 188.09 48.3462 191.542 48.3462 195.801C48.3462 200.06 53.4146 203.512 59.6668 203.512Z" fill="#6C63FF"/>
<path d="M59.6665 195.801C59.6665 195.801 113.439 289.299 112.024 302.793L59.6665 195.801Z" fill="#6C63FF"/>
<path d="M95.0437 202.25V256.945C83.7799 241.326 61.3134 225.244 19.2129 212.189L95.0437 316.423V317.214C95.0437 317.214 95.1869 317.137 95.4536 316.986L95.5828 317.164C95.5828 317.164 95.691 317.019 95.8846 316.739C104.719 311.618 178.816 265.441 95.0437 202.25Z" fill="#3F3D56"/>
<path d="M472.359 203.512C478.611 203.512 483.679 200.06 483.679 195.801C483.679 191.542 478.611 188.09 472.359 188.09C466.106 188.09 461.038 191.542 461.038 195.801C461.038 200.06 466.106 203.512 472.359 203.512Z" fill="#6C63FF"/>
<path d="M472.358 195.801C472.358 195.801 526.131 289.298 524.716 302.793L472.358 195.801Z" fill="#6C63FF"/>
<path d="M507.736 202.25V256.945C496.472 241.326 474.005 225.244 431.905 212.189L507.736 316.423V317.214C507.736 317.214 507.879 317.137 508.145 316.986L508.275 317.164C508.275 317.164 508.383 317.019 508.576 316.739C517.411 311.618 591.508 265.441 507.736 202.25Z" fill="#3F3D56"/>
<path d="M23.3785 301.251C29.3219 312.281 41.9358 317.016 41.9358 317.016C41.9358 317.016 44.9136 303.868 38.9702 292.837C33.0269 281.807 20.413 277.072 20.413 277.072C20.413 277.072 17.4352 290.221 23.3785 301.251Z" fill="#D0CDE1"/>
<path d="M27.464 297.622C38.1941 304.082 42.3267 316.914 42.3267 316.914C42.3267 316.914 29.0621 319.272 18.332 312.812C7.60177 306.351 3.46924 293.519 3.46924 293.519C3.46924 293.519 16.7338 291.162 27.464 297.622Z" fill="#6C63FF"/>
<path d="M378.438 301.251C384.381 312.281 396.995 317.016 396.995 317.016C396.995 317.016 399.973 303.868 394.03 292.837C388.086 281.807 375.473 277.072 375.473 277.072C375.473 277.072 372.495 290.221 378.438 301.251Z" fill="#3F3D56"/>
<path d="M382.523 297.622C393.253 304.082 397.386 316.914 397.386 316.914C397.386 316.914 384.121 319.272 373.391 312.812C362.661 306.351 358.528 293.519 358.528 293.519C358.528 293.519 371.793 291.162 382.523 297.622Z" fill="#3F3D56"/>
<path d="M233.327 293.011C239.27 304.042 251.884 308.777 251.884 308.777C251.884 308.777 254.862 295.628 248.918 284.598C242.975 273.568 230.361 268.833 230.361 268.833C230.361 268.833 227.383 281.981 233.327 293.011Z" fill="#3F3D56"/>
<path d="M237.412 289.383C248.142 295.843 252.274 308.675 252.274 308.675C252.274 308.675 239.01 311.033 228.28 304.572C217.55 298.112 213.417 285.28 213.417 285.28C213.417 285.28 226.682 282.922 237.412 289.383Z" fill="#6C63FF"/>
<path d="M169.004 293.011C174.948 304.042 187.562 308.777 187.562 308.777C187.562 308.777 190.54 295.628 184.596 284.598C178.653 273.568 166.039 268.833 166.039 268.833C166.039 268.833 163.061 281.981 169.004 293.011Z" fill="#D0CDE1"/>
<path d="M173.089 289.383C183.82 295.843 187.952 308.675 187.952 308.675C187.952 308.675 174.688 311.033 163.957 304.572C153.227 298.112 149.095 285.28 149.095 285.28C149.095 285.28 162.359 282.922 173.089 289.383Z" fill="#6C63FF"/>
<path d="M594.561 301.251C588.617 312.281 576.003 317.016 576.003 317.016C576.003 317.016 573.025 303.868 578.969 292.837C584.912 281.807 597.526 277.072 597.526 277.072C597.526 277.072 600.504 290.221 594.561 301.251Z" fill="#3F3D56"/>
<path d="M590.476 297.622C579.746 304.082 575.613 316.914 575.613 316.914C575.613 316.914 588.878 319.272 599.608 312.812C610.338 306.351 614.471 293.519 614.471 293.519C614.471 293.519 601.206 291.162 590.476 297.622Z" fill="#6C63FF"/>
<path d="M618 325.051C618 325.051 603.199 320.662 573.76 316.444L574.29 307.431C578.721 256.671 543.995 181.051 543.995 181.051C557.371 218.672 564.005 258.361 563.594 298.29C558.989 290.478 550.176 282.099 533.376 277.099C533.376 277.099 555.375 295.504 561.85 314.856C539.652 312.109 510.891 309.7 475.624 308.994L482.891 291.676L468.718 306.22C468.718 306.22 462.268 263.202 449.582 261.671L459.398 303.801C459.398 303.801 448.316 295.49 445.794 296.367L452.197 308.789C448.26 308.797 444.254 308.828 440.178 308.88C443.217 258.184 409.69 185.171 409.69 185.171C423.066 222.792 429.7 262.48 429.289 302.409C424.684 294.598 415.871 286.219 399.071 281.219C399.071 281.219 414.196 293.874 423.055 309.23C400.779 309.847 376.606 311.147 350.546 313.342C347.52 313.253 344.445 313.177 341.319 313.114L344.72 305.009L346.036 302.456C345.963 302.432 345.888 302.416 345.811 302.408L348.586 295.795L339.572 305.045C337.547 306.274 335.515 307.673 334.138 308.651C333.992 307.784 333.786 306.616 333.521 305.216L342.248 267.761C336.626 268.439 332.229 277.267 329.075 286.887C325.888 276.535 321.281 266.516 315.277 265.791L324.423 305.041C324.274 305.782 324.138 306.481 324.014 307.131C321.204 305.104 313.724 299.914 311.573 300.468L308.939 297.765L315.298 312.919C312.248 312.932 309.158 312.959 306.028 312.998C305.509 312.94 304.989 312.882 304.47 312.825L309.061 301.885L298.979 312.23C297.338 312.056 295.702 311.884 294.073 311.716C291.975 300.508 285.833 273.097 275.752 271.88L284.819 310.792C283.318 310.647 281.825 310.505 280.337 310.367C277.099 308.259 273.311 306.107 271.964 306.575L273.602 309.752C233.231 306.173 197.291 304.738 165.804 304.669L172.206 292.247C169.684 291.37 158.602 299.682 158.602 299.682L168.418 257.552C160.529 258.504 155.053 275.498 152.038 288.215C149.204 281.623 145.672 276.51 141.447 276L146.977 299.735L135.109 287.556L142.376 304.875C107.109 305.581 78.3484 307.99 56.1496 310.736C62.6254 291.384 84.624 272.979 84.624 272.979C67.8238 277.98 59.0111 286.359 54.4063 294.17C53.9948 254.241 60.6294 214.553 74.0047 176.932C74.0047 176.932 39.2793 252.552 43.7102 303.311L44.2401 312.324C14.8008 316.543 0 320.932 0 320.932L143.865 322.736L145.14 325.209C126.217 327.721 106.51 330.705 86.0191 334.159L483.695 329.171C483.695 329.171 480.591 328.252 474.417 326.852L618 325.051Z" fill="#3F3D56"/>
<path d="M113.842 353C113.842 353 208.524 339.096 267.186 353H113.842Z" fill="#3F3D56"/>
<path d="M476.105 341.119C476.105 341.119 532.184 326.886 566.928 341.119H476.105Z" fill="#3F3D56"/>
<path d="M390.019 265.427C389.774 265.427 389.528 265.419 389.283 265.403L380.508 264.827L294.517 259.188C293.087 259.096 291.701 258.66 290.477 257.917C289.252 257.174 288.225 256.145 287.483 254.919C286.278 252.961 285.88 250.61 286.375 248.363L331.231 42.6308C331.93 39.4924 333.674 36.6846 336.176 34.6678C338.679 32.6509 341.792 31.5447 345.005 31.5303H429.638C431.11 31.5309 432.565 31.8548 433.899 32.4791C435.233 33.1035 436.413 34.0132 437.358 35.1439C438.302 36.2747 438.987 37.599 439.364 39.0234C439.741 40.4479 439.801 41.9379 439.54 43.3882L401.266 256.026C400.913 257.979 400.059 259.807 398.788 261.331L398.682 261.588L398.571 261.588C397.631 262.646 396.505 263.52 395.248 264.168L395.186 264.197C393.584 265.007 391.814 265.428 390.019 265.427ZM345.005 32.5602C342.026 32.5735 339.14 33.599 336.821 35.4686C334.501 37.3382 332.885 39.941 332.237 42.8503L287.381 248.583C286.971 250.487 287.275 252.475 288.235 254.169C289.195 255.863 290.745 257.144 292.588 257.769C293.235 257.985 293.906 258.116 294.586 258.161L389.348 264.376C391.202 264.498 393.054 264.12 394.712 263.282L394.771 263.255C395.906 262.671 396.926 261.883 397.777 260.931L397.944 260.735C399.131 259.336 399.928 257.648 400.253 255.843L438.527 43.2056L439.034 43.2969L438.527 43.2056C438.761 41.9037 438.707 40.5661 438.369 39.2874C438.03 38.0086 437.415 36.8197 436.568 35.8046C435.72 34.7895 434.66 33.9729 433.463 33.4123C432.265 32.8517 430.96 32.5608 429.638 32.5602H345.005Z" fill="#3F3D56"/>
<path d="M298.209 241.354C298.209 241.354 282.061 260.2 285.455 261.431C288.849 262.662 304.695 249.195 303.676 244.435L298.209 241.354Z" fill="#FFB9B9"/>
<path d="M393.256 258.82C393.256 258.82 402.023 282.044 398.413 282.044C394.803 282.044 384.489 263.981 387.068 259.853L393.256 258.82Z" fill="#FFB9B9"/>
<path d="M398.711 118.249C397.264 116.201 395.483 114.41 393.955 112.421C390.433 107.834 389.215 101.722 384.489 98.2048C379.812 94.7243 372.391 91.2986 366.539 91.5731C358.826 91.9348 352.708 97.9224 347.391 103.525C343.328 107.807 339.265 112.089 335.202 116.37C332.262 119.468 329.214 122.756 328.155 126.894C327.137 130.871 328.13 135.144 329.994 138.801C331.931 142.511 334.648 145.756 337.959 148.315C342.039 142.693 347.755 134.929 347.755 134.929L349.086 154.24C355.999 156.532 363.424 156.983 370.709 156.476L372.867 148.559L375.131 156.038C383.837 154.883 392.582 151.875 397.971 145.077C403.929 137.561 404.246 126.082 398.711 118.249Z" fill="#2F2E41"/>
<path d="M365.408 135.476C374.237 135.476 379.5 128 381.395 119.477C381.395 110.641 374.237 103.479 365.408 103.479C356.579 103.479 349.421 110.641 349.421 119.477C351.5 130 356.579 135.476 365.408 135.476Z" fill="#FFB9B9"/>
<path d="M355.094 127.219C355.094 127.219 356.125 139.605 349.421 140.637C342.717 141.669 335.497 140.637 335.497 144.766C335.497 148.894 340.654 186.568 340.654 186.568L353.547 185.536L371.597 167.989L381.395 148.894C381.395 148.894 369.534 143.733 374.691 128.251L355.094 127.219Z" fill="#FFB9B9"/>
<path d="M357 154.5L350.5 144C350.5 144 350.5 144 354.308 135.476L345.81 139.088L326.213 142.185V160.248C326.213 160.248 319.509 171.085 327.245 181.923L330.855 204.631L367.986 202.05L379.847 186.568L394.803 157.151L379.332 145.797L381.395 142.701L373.503 137.551V147L367.986 152C367.986 152 367.986 152 357 154.5Z" fill="white"/>
<path d="M329.308 143.217L326.213 142.185C326.213 142.185 320.025 144.765 320.025 153.022C320.025 161.28 295.271 242.821 295.271 242.821L306.616 245.918L322.088 208.243L331.37 176.762L329.308 143.217Z" fill="white"/>
<path d="M390.678 157.151H394.803C394.803 157.151 397.382 155.087 396.866 170.053C396.351 185.02 398.413 263.981 398.413 263.981L383.458 262.949L379.848 177.795L390.678 157.151Z" fill="white"/>
<path d="M380.542 264.312L352.358 262.464L345.509 262.016L329.913 260.991C329.676 260.152 329.47 259.425 329.305 258.818C324.149 239.724 329.825 212.889 329.825 212.889C329.825 212.889 328.791 210.31 329.825 208.76C330.854 207.21 330.34 207.73 328.276 205.665C326.213 203.6 328.276 205.665 329.305 203.085C330.34 200.5 329.305 203.085 329.305 201.02C329.359 199.895 328.992 198.79 328.276 197.92C328.701 197.585 329.164 197.302 329.655 197.075C339.468 192.369 370.966 198.162 370.966 198.162C370.966 198.162 370.945 198.188 370.909 198.239C370.662 198.6 369.725 200.175 371.079 201.535C372.628 203.085 370.05 203.085 369.535 204.63C369.015 206.18 369.535 204.63 370.05 206.18C370.564 207.73 369.015 209.79 369.015 209.79C382.291 220.954 382.991 244.296 380.542 264.312Z" fill="#2F2E41"/>
<path d="M352.358 262.464L345.509 262.016C346.672 256.727 347.357 253.658 347.357 253.658L352.358 262.464Z" fill="#2F2E41"/>
<path d="M348.131 107.866C348.131 107.866 361.024 123.348 386.81 114.575L379.59 101.673L362.571 96.5117L348.131 107.866Z" fill="#2F2E41"/>
<path d="M228.971 335.564C228.971 335.564 236.257 341.704 240.091 341.321C243.926 340.937 251.212 340.937 248.144 345.158C245.077 349.379 232.422 351.682 227.053 352.066C221.685 352.449 209.797 352.833 210.564 350.531C211.331 348.228 212.098 337.483 215.166 336.716C218.234 335.948 228.971 335.564 228.971 335.564Z" fill="#575A89"/>
<path d="M187.154 329.536C187.154 329.536 192.523 337.41 196.319 338.071C200.116 338.733 207.134 340.693 203.045 343.934C198.957 347.174 186.149 345.989 180.875 344.914C175.601 343.84 164.048 341.013 165.405 339.001C166.762 336.99 170.386 326.846 173.547 326.932C176.708 327.018 187.154 329.536 187.154 329.536Z" fill="#575A89"/>
<path d="M233.239 216.932C233.239 216.932 238.174 250.756 237.024 256.896C235.873 263.035 235.106 272.629 235.106 272.629C235.106 272.629 235.873 280.688 235.106 284.525C234.339 288.363 229.738 324.819 229.738 325.586C229.738 326.354 230.505 328.656 229.738 330.575C228.971 332.494 227.437 330.959 229.738 334.029C232.039 337.099 230.505 337.866 230.121 337.866C229.738 337.866 214.782 339.401 214.015 337.866C213.248 336.331 214.399 335.947 214.015 334.029C213.632 332.11 213.248 331.726 212.482 331.342C211.715 330.959 210.181 331.726 211.331 329.807C212.481 327.889 215.166 325.586 214.399 324.435C213.632 323.284 214.782 314.841 214.782 314.841C214.782 314.841 215.549 296.038 215.933 284.525C216.316 273.013 212.482 261.117 212.482 261.117C212.004 270.536 208.508 279.552 202.511 286.828C192.541 298.724 187.556 320.981 187.556 320.981C187.556 320.981 185.255 324.435 186.405 327.505C187.556 330.575 191.007 328.656 187.556 330.575C184.105 332.494 172.217 329.807 171.067 328.656C169.916 327.505 172.601 325.97 171.834 322.9C171.067 319.83 167.999 320.598 170.683 319.063C173.367 317.528 174.134 317.911 174.134 316.376C174.134 314.841 181.037 281.455 191.774 271.862L192.541 236.941C192.541 236.941 182.954 212.381 192.924 210.078C202.895 207.776 233.239 216.932 233.239 216.932Z" fill="#2F2E41"/>
<path d="M226.287 126.039C226.287 126.039 219.768 142.156 221.302 144.458C222.836 146.761 202.512 136.783 202.512 136.783C202.512 136.783 209.031 120.666 209.031 118.747C209.031 116.829 226.287 126.039 226.287 126.039Z" fill="#FFB9B9"/>
<path d="M221.493 130.067C229.329 130.067 235.682 123.71 235.682 115.869C235.682 108.027 229.329 101.67 221.493 101.67C213.657 101.67 207.305 108.027 207.305 115.869C207.305 123.71 213.657 130.067 221.493 130.067Z" fill="#FFB9B9"/>
<path d="M202.512 130.26C202.512 130.26 212.482 129.108 217.467 135.248C222.452 141.388 223.219 142.923 223.219 142.923C223.219 142.923 235.107 162.111 232.806 171.704C232.245 172.57 231.733 173.467 231.272 174.391C230.505 175.925 230.505 197.415 231.272 200.869C232.039 204.323 232.806 205.474 232.039 210.463C231.272 215.451 238.174 223.51 230.121 225.045C222.069 226.58 215.933 225.429 213.249 221.975C210.564 218.521 212.865 216.219 204.429 216.219C195.993 216.219 190.624 210.463 190.624 210.463C190.624 210.463 194.842 205.858 193.308 205.09C191.774 204.323 193.308 202.404 194.075 200.485C194.842 198.567 194.842 197.032 193.692 197.032C192.541 197.032 193.308 196.264 194.075 194.345C194.842 192.427 180.654 159.424 189.09 149.831C197.526 140.237 201.745 134.865 201.745 134.865C201.745 134.865 200.211 129.108 202.512 130.26Z" fill="#2F2E41"/>
<path d="M224.369 166.716V183.601L236.64 224.278C236.64 224.278 244.693 245.384 236.64 245.384C228.587 245.384 229.019 225.239 229.019 225.239L211.715 194.729C211.715 194.729 204.812 170.553 205.579 168.635C206.346 166.716 224.369 166.716 224.369 166.716Z" fill="#FFB9B9"/>
<path d="M217.851 141.772C217.851 141.772 229.355 146.377 226.287 158.657C223.219 170.936 226.287 170.553 226.287 170.553C226.287 170.553 210.565 169.018 205.58 172.471L204.429 167.866C204.429 167.866 199.827 141.388 217.851 141.772Z" fill="#2F2E41"/>
<path d="M226.338 105.21C227.224 105.524 228.174 105.613 229.102 105.469C230.03 105.324 230.908 104.951 231.656 104.382C233.102 103.19 233.715 100.991 232.864 99.3213C232.13 97.8792 230.56 97.0881 229.054 96.4981C225.732 95.1977 222.232 94.407 218.674 94.1527C216.978 94.032 215.196 94.0511 213.682 94.8266C212.933 95.2103 212.283 95.7641 211.541 96.1616C210.177 96.8924 208.59 97.0549 207.116 97.5253C205.607 98.0177 204.223 98.8284 203.055 99.9027C201.887 100.977 200.963 102.29 200.346 103.752C199.945 104.745 199.665 105.783 199.512 106.843C199.071 109.746 199.379 112.713 200.407 115.462C202.042 119.818 205.47 123.625 205.664 128.274C207.762 126.75 208.54 124 210.222 122.026C211.473 120.566 213.181 119.575 215.069 119.213C215.591 119.181 216.093 118.998 216.513 118.685C216.806 118.335 216.99 117.907 217.041 117.454L218.477 110.67C218.769 109.289 219.138 107.784 220.272 106.945C220.978 106.493 221.779 106.21 222.612 106.12C224.592 105.773 226.597 105.59 228.607 105.573" fill="#2F2E41"/>
</g>
<defs>
<clipPath id="clip0">
<rect width="618" height="353" fill="white"/>
</clipPath>
</defs>
</svg>
