<svg width="814" height="342" viewBox="0 0 814 342" fill="none" xmlns="http://www.w3.org/2000/svg">
<g clip-path="url(#clip0)">
<path d="M407 342C631.78 342 814 335.494 814 327.469C814 319.443 631.78 312.938 407 312.938C182.22 312.938 0 319.443 0 327.469C0 335.494 182.22 342 407 342Z" fill="#3F3D56"/>
<path d="M724.439 246.212C725.95 243.572 726.731 240.577 726.701 237.535C726.701 229.695 721.86 223.336 715.857 223.336C709.854 223.336 705.019 229.695 705.019 237.535C704.989 240.577 705.77 243.572 707.281 246.212C705.798 248.863 705.019 251.851 705.019 254.889C705.019 257.927 705.798 260.915 707.281 263.566C705.798 266.216 705.019 269.203 705.019 272.24C705.019 275.277 705.798 278.264 707.281 280.914C705.798 283.565 705.019 286.553 705.019 289.591C705.019 292.629 705.798 295.617 707.281 298.268C705.77 300.908 704.989 303.903 705.019 306.945C705.019 314.785 709.86 321.144 715.857 321.144C721.853 321.144 726.701 314.785 726.701 306.945C726.731 303.903 725.95 300.908 724.439 298.268C725.922 295.617 726.701 292.629 726.701 289.591C726.701 286.553 725.922 283.565 724.439 280.914C725.922 278.264 726.701 275.277 726.701 272.24C726.701 269.203 725.922 266.216 724.439 263.566C725.922 260.915 726.701 257.927 726.701 254.889C726.701 251.851 725.922 248.863 724.439 246.212Z" fill="#3F3D56"/>
<path d="M715.829 234.38C721.814 234.38 726.666 228.023 726.666 220.181C726.666 212.34 721.814 205.982 715.829 205.982C709.844 205.982 704.992 212.34 704.992 220.181C704.992 228.023 709.844 234.38 715.829 234.38Z" fill="#3F3D56"/>
<path d="M715.829 217.026C721.814 217.026 726.666 210.669 726.666 202.827C726.666 194.985 721.814 188.628 715.829 188.628C709.844 188.628 704.992 194.985 704.992 202.827C704.992 210.669 709.844 217.026 715.829 217.026Z" fill="#3F3D56"/>
<path d="M675.254 84.0726C673.772 82.1865 672.423 80.2005 671.215 78.1287L699.701 73.4511L668.891 73.6794C665.936 67.246 664.325 60.2771 664.155 53.1992C663.985 46.1212 665.26 39.0829 667.902 32.5149L709.231 53.9655L671.118 25.9344C674.684 19.7541 679.485 14.3752 685.221 10.1333C690.957 5.89127 697.504 2.87712 704.456 1.27877C711.407 -0.319577 718.613 -0.46784 725.624 0.843213C732.636 2.15427 739.302 4.89652 745.207 8.89898C751.112 12.9014 756.13 18.0783 759.947 24.1066C763.765 30.135 766.3 36.8856 767.395 43.9375C768.489 50.9893 768.12 58.1913 766.31 65.0941C764.5 71.997 761.288 78.4527 756.875 84.0588C759.188 86.9934 761.173 90.1722 762.795 93.5386L725.822 112.768L765.243 99.531C768.01 107.718 768.694 116.466 767.231 124.984C765.769 133.502 762.207 141.52 756.868 148.314C762.895 155.976 766.645 165.181 767.69 174.876C768.734 184.571 767.03 194.364 762.774 203.135C758.517 211.907 751.879 219.303 743.619 224.477C735.359 229.652 725.81 232.396 716.064 232.396C706.319 232.396 696.77 229.652 688.509 224.477C680.249 219.303 673.611 211.907 669.355 203.135C665.098 194.364 663.394 184.571 664.439 174.876C665.483 165.181 669.233 155.976 675.26 148.314C668.061 139.157 664.147 127.844 664.147 116.193C664.147 104.542 668.061 93.2298 675.26 84.0726H675.254Z" fill="#57B894"/>
<path opacity="0.1" d="M768.009 116.193C768.027 127.847 764.111 139.165 756.895 148.314C762.922 155.976 766.673 165.181 767.717 174.876C768.761 184.57 767.058 194.364 762.801 203.135C758.544 211.907 751.906 219.302 743.646 224.477C735.386 229.651 725.837 232.396 716.092 232.396C706.346 232.396 696.797 229.651 688.537 224.477C680.277 219.302 673.639 211.907 669.382 203.135C665.125 194.364 663.422 184.57 664.466 174.876C665.51 165.181 669.261 155.976 675.288 148.314C668.296 139.477 768.009 110.367 768.009 116.193Z" fill="black"/>
<path d="M681.27 4.84375H132.73C124.93 4.84375 118.607 11.1699 118.607 18.9735V306.247C118.607 314.05 124.93 320.376 132.73 320.376H681.27C689.07 320.376 695.392 314.05 695.392 306.247V18.9735C695.392 11.1699 689.07 4.84375 681.27 4.84375Z" fill="#F2F2F2"/>
<path d="M118.953 20.4131H304.299V320.723H133.075C129.33 320.723 125.738 319.234 123.089 316.584C120.441 313.934 118.953 310.34 118.953 306.593V20.4131Z" fill="#6C63FF"/>
<path d="M695.392 18.9734V26.9932H118.607V18.9734C118.607 17.1182 118.973 15.2812 119.683 13.5673C120.392 11.8533 121.433 10.2961 122.744 8.98463C124.056 7.67311 125.612 6.63296 127.326 5.92363C129.039 5.2143 130.875 4.84968 132.73 4.85059H681.27C683.124 4.84968 684.961 5.2143 686.674 5.92363C688.387 6.63296 689.944 7.67311 691.256 8.98463C692.567 10.2961 693.608 11.8533 694.317 13.5673C695.027 15.2812 695.392 17.1182 695.392 18.9734Z" fill="#3F3D56"/>
<path d="M133.477 20.4129C135.768 20.4129 137.626 18.5541 137.626 16.2611C137.626 13.9682 135.768 12.1094 133.477 12.1094C131.185 12.1094 129.327 13.9682 129.327 16.2611C129.327 18.5541 131.185 20.4129 133.477 20.4129Z" fill="#6C63FF"/>
<path d="M143.851 20.4129C146.142 20.4129 148 18.5541 148 16.2611C148 13.9682 146.142 12.1094 143.851 12.1094C141.559 12.1094 139.701 13.9682 139.701 16.2611C139.701 18.5541 141.559 20.4129 143.851 20.4129Z" fill="#6C63FF"/>
<path d="M154.224 20.4129C156.516 20.4129 158.374 18.5541 158.374 16.2611C158.374 13.9682 156.516 12.1094 154.224 12.1094C151.933 12.1094 150.075 13.9682 150.075 16.2611C150.075 18.5541 151.933 20.4129 154.224 20.4129Z" fill="#6C63FF"/>
<path opacity="0.3" d="M661.339 64.4355H423.072C422.599 64.4355 422.215 64.8197 422.215 65.2936V71.189C422.215 71.6629 422.599 72.0471 423.072 72.0471H661.339C661.812 72.0471 662.196 71.6629 662.196 71.189V65.2936C662.196 64.8197 661.812 64.4355 661.339 64.4355Z" fill="#6C63FF"/>
<path d="M657.881 78.9658H609.11C608.636 78.9658 608.252 79.35 608.252 79.8238V95.4067C608.252 95.8806 608.636 96.2647 609.11 96.2647H657.881C658.355 96.2647 658.738 95.8806 658.738 95.4067V79.8238C658.738 79.35 658.355 78.9658 657.881 78.9658Z" fill="#6C63FF"/>
<path opacity="0.3" d="M661.339 156.991H423.072C422.599 156.991 422.215 157.375 422.215 157.849V163.745C422.215 164.219 422.599 164.603 423.072 164.603H661.339C661.812 164.603 662.196 164.219 662.196 163.745V157.849C662.196 157.375 661.812 156.991 661.339 156.991Z" fill="#6C63FF"/>
<path d="M657.881 171.522H609.11C608.636 171.522 608.252 171.907 608.252 172.38V187.963C608.252 188.437 608.636 188.821 609.11 188.821H657.881C658.355 188.821 658.738 188.437 658.738 187.963V172.38C658.738 171.907 658.355 171.522 657.881 171.522Z" fill="#6C63FF"/>
<path opacity="0.3" d="M661.339 251.098H423.072C422.599 251.098 422.215 251.482 422.215 251.956V257.851C422.215 258.325 422.599 258.709 423.072 258.709H661.339C661.812 258.709 662.196 258.325 662.196 257.851V251.956C662.196 251.482 661.812 251.098 661.339 251.098Z" fill="#6C63FF"/>
<path d="M657.881 265.629H609.11C608.636 265.629 608.252 266.013 608.252 266.487V282.07C608.252 282.544 608.636 282.928 609.11 282.928H657.881C658.355 282.928 658.738 282.544 658.738 282.07V266.487C658.738 266.013 658.355 265.629 657.881 265.629Z" fill="#6C63FF"/>
<path d="M370.131 207.172C389.046 207.172 404.379 191.831 404.379 172.906C404.379 153.982 389.046 138.641 370.131 138.641C351.217 138.641 335.884 153.982 335.884 172.906C335.884 191.831 351.217 207.172 370.131 207.172Z" fill="#3F3D56"/>
<path d="M400.354 190.98C400.317 191.063 400.268 191.14 400.209 191.209C399.836 191.826 399.432 192.424 398.999 193.001C395.201 198.261 389.983 202.33 383.957 204.73C383.362 204.979 382.753 205.207 382.138 205.421C381.568 204.965 381.04 204.458 380.561 203.906C379.132 202.283 378.176 200.299 377.794 198.17C376.883 198.346 375.957 198.434 375.028 198.433C374.936 198.44 374.844 198.44 374.751 198.433C367.628 198.308 361.514 193.091 358.783 185.645L358.672 185.327C357.006 180.477 356.818 175.241 358.133 170.284C358.167 170.118 358.222 169.952 358.271 169.793C360.608 161.759 366.777 155.905 374.115 155.441C374.343 155.441 374.572 155.441 374.807 155.441C375.042 155.441 375.18 155.441 375.367 155.441H375.699C384.994 155.78 392.477 164.776 392.823 176.027C394.722 177.275 396.227 179.04 397.159 181.114C398.091 183.188 398.413 185.485 398.086 187.735C399.013 188.686 399.779 189.782 400.354 190.98Z" fill="#192534"/>
<path opacity="0.1" d="M400.208 191.209C399.835 191.826 399.431 192.424 398.998 193.001C398.497 192.102 397.876 191.275 397.152 190.544C397.231 189.973 397.273 189.398 397.276 188.821C397.276 186.84 396.784 184.891 395.843 183.148C394.903 181.405 393.544 179.923 391.889 178.836C391.508 167.35 383.7 158.174 374.135 158.174C367.303 158.174 361.376 162.838 358.395 169.689C358.319 169.869 358.25 170.042 358.167 170.228C357.918 170.823 357.696 171.425 357.475 172.055C357.719 170.79 358.059 169.546 358.492 168.332L358.589 168.236C361.251 160.894 367.199 155.683 374.184 155.372C374.412 155.372 374.64 155.372 374.875 155.372C375.111 155.372 375.249 155.372 375.436 155.372H375.768C384.931 155.926 392.269 164.88 392.622 176.013C394.526 177.258 396.034 179.021 396.969 181.096C397.904 183.17 398.227 185.469 397.898 187.721C398.87 188.737 399.652 189.918 400.208 191.209Z" fill="black"/>
<path d="M364.122 181.383C364.207 182.083 364.127 182.794 363.886 183.458C363.478 184.406 362.503 185.257 362.773 186.226C362.91 186.53 363.117 186.797 363.376 187.007C363.636 187.216 363.941 187.361 364.267 187.43C367.248 188.44 370.491 187.838 373.645 187.977C374.696 188.069 375.751 188.106 376.805 188.088C377.866 188.064 378.893 187.706 379.738 187.063C378.1 186.267 376.553 185.295 375.125 184.164C374.778 183.907 374.464 183.607 374.191 183.272C373.605 182.322 373.323 181.217 373.382 180.102C373.382 179.002 373.382 177.902 373.382 176.809C371.127 176.809 368.88 176.774 366.625 176.774C365.934 176.774 363.7 176.601 363.444 177.383C363.319 177.771 363.804 178.912 363.88 179.348C363.996 180.022 364.077 180.701 364.122 181.383Z" fill="#A0616A"/>
<path opacity="0.1" d="M364.122 181.383C364.207 182.083 364.127 182.794 363.886 183.458C363.478 184.406 362.503 185.257 362.773 186.226C362.91 186.53 363.117 186.797 363.376 187.007C363.636 187.216 363.941 187.361 364.267 187.43C367.248 188.44 370.491 187.838 373.645 187.977C374.696 188.069 375.751 188.106 376.805 188.088C377.866 188.064 378.893 187.706 379.738 187.063C378.1 186.267 376.553 185.295 375.125 184.164C374.778 183.907 374.464 183.607 374.191 183.272C373.605 182.322 373.323 181.217 373.382 180.102C373.382 179.002 373.382 177.902 373.382 176.809C371.127 176.809 368.88 176.774 366.625 176.774C365.934 176.774 363.7 176.601 363.444 177.383C363.319 177.771 363.804 178.912 363.88 179.348C363.996 180.022 364.077 180.701 364.122 181.383Z" fill="black"/>
<path d="M368.755 180.387C373.144 180.387 376.701 176.827 376.701 172.436C376.701 168.045 373.144 164.485 368.755 164.485C364.366 164.485 360.809 168.045 360.809 172.436C360.809 176.827 364.366 180.387 368.755 180.387Z" fill="#A0616A"/>
<path d="M383.825 195.499C383.825 195.714 383.784 195.942 383.749 196.191C383.492 197.481 383.114 198.743 382.622 199.962C382.33 200.789 381.979 201.594 381.57 202.37C381.273 202.903 380.879 203.394 380.561 203.913L380.104 204.654C379.813 205.153 379.566 205.676 379.364 206.218C378.03 206.559 376.674 206.807 375.305 206.958C373.967 207.119 372.62 207.2 371.273 207.2C364.046 207.2 356.251 205.325 350.726 201.492C350.726 201.492 351.535 200.931 351.417 200.8C351.417 200.481 351.383 200.17 351.383 199.852C351.374 199.032 351.508 198.218 351.777 197.444C352.012 196.702 352.422 196.028 352.973 195.478C353.665 194.787 354.592 194.358 355.332 193.693C356.277 192.778 356.946 191.615 357.261 190.337C357.434 189.784 357.558 189.196 357.676 188.628C357.781 187.852 357.995 187.095 358.312 186.379C358.356 186.288 358.407 186.2 358.464 186.116C358.57 185.939 358.695 185.774 358.838 185.625C359.543 184.937 360.368 184.384 361.272 183.992C362.026 183.604 363.084 183.3 363.61 183.944V183.992C363.782 184.388 363.927 184.795 364.046 185.21C364.467 186.082 365.643 186.192 366.598 186.172C369.973 186.101 373.341 185.819 376.681 185.327L378.299 185.065C379.468 184.871 380.284 185.895 380.941 186.891C382.642 189.458 384.081 192.413 383.825 195.499Z" fill="#6C63FF"/>
<path opacity="0.1" d="M359.557 196.038C358.817 196.204 358.388 196.951 358.042 197.63C357.387 198.744 357.099 200.037 357.219 201.325C357.199 201.83 357.253 202.336 357.378 202.826C357.506 203.32 357.818 203.746 358.25 204.016" stroke="black" stroke-miterlimit="10"/>
<path d="M379.399 168.926C379.999 166.578 376.63 163.689 371.875 162.473C367.12 161.257 362.779 162.174 362.179 164.521C361.579 166.869 364.948 169.757 369.703 170.974C374.458 172.19 378.799 171.273 379.399 168.926Z" fill="#192534"/>
<path opacity="0.1" d="M370.145 169.308C365.92 168.229 362.794 165.849 362.538 163.662C362.341 163.908 362.2 164.194 362.123 164.499C361.521 166.845 364.889 169.731 369.64 170.948C374.392 172.166 378.735 171.246 379.323 168.873C379.389 168.611 379.408 168.339 379.378 168.07C378.112 169.814 374.288 170.367 370.145 169.308Z" fill="black"/>
<path d="M384.032 201.138C384.032 202.342 384.032 203.539 383.956 204.729C383.362 204.978 382.753 205.207 382.137 205.421C381.231 205.736 380.307 205.999 379.371 206.21C378.037 206.552 376.68 206.799 375.311 206.95C375.069 204.086 374.523 201.325 374.793 198.418C375.017 196.192 375.782 194.054 377.02 192.191C377.505 191.375 378.2 190.703 379.032 190.246C379.448 190.026 379.918 189.928 380.387 189.965C380.856 190.001 381.305 190.171 381.681 190.454C382.152 190.946 382.481 191.555 382.635 192.218C383.102 193.517 383.477 194.846 383.756 196.197C383.756 196.343 383.804 196.502 383.825 196.654C384.016 198.14 384.086 199.64 384.032 201.138Z" fill="#A0616A"/>
<path d="M404.372 267.013C404.388 272.744 402.961 278.386 400.222 283.419C399.918 283.973 399.6 284.533 399.24 285.087C399.203 285.169 399.154 285.246 399.095 285.315C398.722 285.933 398.318 286.531 397.885 287.107C395.257 290.753 391.931 293.84 388.099 296.186L387.898 296.324C386.639 297.081 385.334 297.758 383.991 298.352C383.617 298.518 383.23 298.677 382.843 298.836C382.456 298.995 382.096 299.141 381.709 299.265C381.515 299.348 381.307 299.417 381.107 299.487C381.084 299.483 381.061 299.483 381.038 299.487C380.616 299.639 380.18 299.77 379.751 299.902L379.426 299.978C379.039 300.095 378.652 300.192 378.264 300.275C376.928 300.618 375.569 300.865 374.198 301.016C372.869 301.177 371.532 301.258 370.194 301.258C370.055 301.258 369.917 301.258 369.779 301.258C367.923 301.252 366.071 301.081 364.246 300.746L363.914 300.691C363.575 300.635 363.222 300.566 362.897 300.483L362.254 300.338C361.572 300.188 360.898 300.003 360.235 299.784C358.883 299.379 357.56 298.886 356.272 298.31L356.127 298.248C354.241 297.393 352.438 296.367 350.739 295.183C350.595 295.098 350.456 295.003 350.324 294.899C345.543 291.489 341.719 286.905 339.219 281.59C336.719 276.274 335.627 270.404 336.048 264.545C336.47 258.685 338.39 253.032 341.625 248.129C344.86 243.226 349.3 239.238 354.52 236.548C359.74 233.857 365.563 232.555 371.431 232.766C377.299 232.977 383.014 234.695 388.027 237.754C393.041 240.812 397.183 245.109 400.058 250.232C402.932 255.355 404.442 261.131 404.441 267.006L404.372 267.013Z" fill="#3F3D56"/>
<path d="M378.416 258.758C378.335 260.63 377.534 262.398 376.181 263.694C374.828 264.99 373.028 265.713 371.155 265.713C369.282 265.713 367.481 264.99 366.128 263.694C364.776 262.398 363.975 260.63 363.893 258.758C363.893 258.64 363.893 258.523 363.893 258.412C363.893 256.485 364.658 254.637 366.02 253.275C367.382 251.912 369.229 251.146 371.155 251.146C373.081 251.146 374.928 251.912 376.29 253.275C377.651 254.637 378.416 256.485 378.416 258.412C378.41 258.523 378.416 258.64 378.416 258.758Z" fill="#192534"/>
<path opacity="0.1" d="M378.416 258.757C378.335 260.629 377.534 262.398 376.181 263.693C374.828 264.989 373.028 265.712 371.155 265.712C369.282 265.712 367.481 264.989 366.128 263.693C364.776 262.398 363.975 260.629 363.893 258.757C363.893 258.64 363.893 258.522 363.893 258.411C365.942 256.734 368.508 255.817 371.155 255.817C373.802 255.817 376.368 256.734 378.416 258.411C378.41 258.522 378.416 258.64 378.416 258.757Z" fill="black"/>
<path d="M371.148 279.419C377.485 279.419 382.622 274.28 382.622 267.94C382.622 261.6 377.485 256.46 371.148 256.46C364.812 256.46 359.675 261.6 359.675 267.94C359.675 274.28 364.812 279.419 371.148 279.419Z" fill="#192534"/>
<path d="M364.198 257.152C364.199 255.391 364.839 253.69 365.999 252.365C367.159 251.04 368.76 250.181 370.505 249.949C369.477 249.809 368.432 249.892 367.439 250.19C366.446 250.489 365.528 250.996 364.747 251.679C363.966 252.361 363.341 253.203 362.912 254.148C362.483 255.092 362.261 256.118 362.261 257.155C362.261 258.193 362.483 259.218 362.912 260.163C363.341 261.107 363.966 261.949 364.747 262.632C365.528 263.314 366.446 263.822 367.439 264.12C368.432 264.419 369.477 264.501 370.505 264.362C368.759 264.129 367.157 263.269 365.997 261.943C364.837 260.617 364.197 258.914 364.198 257.152Z" fill="#192534"/>
<path d="M358.202 272.603C356.882 271.437 356.03 269.83 355.805 268.083C355.58 266.336 355.997 264.566 356.978 263.103C356.733 263.319 356.502 263.55 356.286 263.794C355.628 264.506 355.118 265.342 354.788 266.254C354.457 267.165 354.312 268.134 354.361 269.102C354.41 270.071 354.653 271.02 355.074 271.893C355.495 272.766 356.086 273.547 356.813 274.188C357.54 274.83 358.387 275.319 359.306 275.628C360.225 275.937 361.196 276.059 362.162 275.986C363.129 275.914 364.071 275.649 364.934 275.207C365.796 274.765 366.562 274.155 367.185 273.413C367.397 273.171 367.593 272.917 367.773 272.652C366.442 273.805 364.739 274.435 362.978 274.426C361.218 274.417 359.521 273.77 358.202 272.603Z" fill="#192534"/>
<path d="M365.145 282.499C364.548 282.617 363.97 282.819 363.43 283.101C362.476 283.793 362.51 285.177 362.794 286.305C363.444 288.879 365.034 291.349 367.469 292.401C368.976 292.957 370.582 293.193 372.185 293.093C373.921 293.093 375.885 292.857 376.964 291.487C377.45 290.765 377.782 289.95 377.939 289.093C378.472 287.017 379.011 284.872 378.818 282.727C377.767 282.817 376.591 282.879 375.761 282.215C374.931 281.551 374.744 280.285 374.378 279.233C374.338 279.064 374.243 278.913 374.108 278.804C373.956 278.735 373.789 278.711 373.624 278.735C372.52 278.782 371.414 278.736 370.318 278.596C369.627 278.506 367.953 277.794 367.441 278.396C367.068 278.831 367.303 280.16 367.012 280.776C366.831 281.173 366.572 281.529 366.251 281.825C365.931 282.121 365.555 282.35 365.145 282.499Z" fill="#FFC1C7"/>
<path opacity="0.05" d="M365.145 282.499C364.548 282.617 363.97 282.819 363.43 283.101C362.476 283.793 362.51 285.177 362.794 286.305C363.444 288.879 365.034 291.349 367.469 292.401C368.976 292.957 370.582 293.193 372.185 293.093C373.921 293.093 375.885 292.857 376.964 291.487C377.45 290.765 377.782 289.95 377.939 289.093C378.472 287.017 379.011 284.872 378.818 282.727C377.767 282.817 376.591 282.879 375.761 282.215C374.931 281.551 374.744 280.285 374.378 279.233C374.338 279.064 374.243 278.913 374.108 278.804C373.956 278.735 373.789 278.711 373.624 278.735C372.52 278.782 371.414 278.736 370.318 278.596C369.627 278.506 367.953 277.794 367.441 278.396C367.068 278.831 367.303 280.16 367.012 280.776C366.831 281.173 366.572 281.529 366.251 281.825C365.931 282.121 365.555 282.35 365.145 282.499Z" fill="black"/>
<path d="M370.989 281.509C375.419 281.509 379.011 277.916 379.011 273.483C379.011 269.05 375.419 265.456 370.989 265.456C366.558 265.456 362.966 269.05 362.966 273.483C362.966 277.916 366.558 281.509 370.989 281.509Z" fill="#FFC1C7"/>
<path d="M388.576 290.871C388.521 290.94 388.466 291.023 388.403 291.092L388.064 291.535C386.356 293.583 384.973 295.882 383.963 298.351C383.59 298.517 383.203 298.676 382.815 298.835C382.428 298.994 382.068 299.14 381.681 299.264C381.487 299.347 381.28 299.417 381.079 299.486C381.056 299.483 381.033 299.483 381.01 299.486C380.588 299.638 380.153 299.769 379.724 299.901L379.399 299.977C379.012 300.095 378.624 300.192 378.237 300.275C376.901 300.617 375.542 300.864 374.17 301.015C372.842 301.176 371.504 301.257 370.166 301.257C370.028 301.257 369.889 301.257 369.751 301.257C367.895 301.252 366.044 301.08 364.218 300.745L363.886 300.69C363.548 300.634 363.195 300.565 362.87 300.482L362.227 300.337C361.544 300.187 360.87 300.003 360.207 299.783C360.392 298.624 360.909 297.542 361.694 296.669C360.138 294.808 357.579 294.075 355.926 292.317C355.782 292.15 355.648 291.974 355.525 291.791C355.439 291.659 355.367 291.517 355.311 291.369C355.261 291.252 355.231 291.129 355.221 291.002C355.169 290.747 355.148 290.487 355.159 290.227C355.117 288.262 355.207 286.02 356.729 284.789C357.476 284.265 358.316 283.889 359.204 283.681C360.749 283.198 362.252 282.592 363.7 281.868C363.832 282.178 363.921 282.504 363.963 282.837C364.101 283.64 364.087 284.484 364.274 285.28C364.636 286.699 365.514 287.932 366.736 288.74C367.954 289.538 369.342 290.043 370.789 290.214C372.213 290.421 373.347 289.681 374.689 289.176C375.283 288.986 375.832 288.675 376.3 288.262C376.906 287.563 377.229 286.662 377.206 285.737C377.206 284.823 377.103 283.91 377.158 282.969C377.159 282.873 377.171 282.778 377.193 282.685C377.195 282.444 377.272 282.21 377.413 282.016C377.554 281.821 377.753 281.675 377.981 281.599C378.24 281.577 378.5 281.625 378.735 281.737L381.321 282.727C382.442 283.115 383.522 283.613 384.544 284.214C385.674 284.948 386.623 285.928 387.322 287.081C388.02 288.234 388.449 289.529 388.576 290.871Z" fill="#6C63FF"/>
<path opacity="0.1" d="M364.184 300.752L363.852 300.697C363.513 300.641 363.16 300.572 362.835 300.489L362.192 300.344C361.51 300.194 360.836 300.009 360.173 299.79C358.822 299.385 357.498 298.893 356.21 298.316C355.562 296.208 355.328 293.995 355.518 291.798C355.602 290.856 355.798 289.927 356.099 289.03C357.552 290.414 360.028 289.632 361.674 290.739C362.12 291.055 362.485 291.473 362.739 291.957C363.199 292.844 363.512 293.8 363.665 294.787C363.769 295.327 363.866 295.874 363.949 296.42C363.949 296.517 363.949 296.593 363.949 296.676C363.949 296.759 363.949 296.849 363.949 296.939C364.004 297.327 364.053 297.728 364.073 298.123C364.184 299.015 364.184 299.873 364.184 300.752Z" fill="black"/>
<path d="M363.852 300.697C363.513 300.642 363.16 300.573 362.835 300.49L362.192 300.344C361.51 300.195 360.836 300.01 360.173 299.791C358.821 299.386 357.498 298.893 356.21 298.317L356.065 298.255C355.27 295.927 354.971 293.46 355.186 291.01C355.285 290.126 355.475 289.254 355.753 288.408C357.206 289.792 359.682 289.024 361.328 290.131C361.962 290.587 362.444 291.224 362.711 291.958C362.98 292.669 363.181 293.403 363.312 294.151C363.465 294.961 363.61 295.771 363.707 296.594C363.728 296.708 363.74 296.824 363.741 296.94C363.741 297.016 363.741 297.113 363.741 297.189C363.741 297.265 363.741 297.383 363.741 297.487C363.873 298.545 363.866 299.625 363.852 300.697Z" fill="#6C63FF"/>
<path opacity="0.1" d="M387.871 296.323C386.612 297.08 385.307 297.757 383.963 298.351C383.59 298.517 383.203 298.676 382.815 298.835C382.428 298.994 382.068 299.14 381.681 299.264C381.488 299.347 381.28 299.416 381.079 299.486C381.057 299.483 381.033 299.483 381.01 299.486C380.588 299.638 380.153 299.769 379.724 299.901L379.399 299.977C379.399 299.361 379.399 298.725 379.468 298.102C379.516 297.61 379.572 297.119 379.641 296.628C379.641 296.538 379.641 296.448 379.676 296.358C379.682 296.301 379.682 296.242 379.676 296.185C379.759 295.714 379.848 295.237 379.938 294.766C380.082 293.777 380.395 292.819 380.865 291.936C381.124 291.461 381.492 291.054 381.937 290.746C383.583 289.639 386.087 290.393 387.47 289.037C387.742 289.841 387.93 290.671 388.03 291.514C388.217 293.116 388.164 294.737 387.871 296.323Z" fill="black"/>
<path d="M388.071 296.185L387.871 296.323C386.611 297.08 385.306 297.757 383.963 298.351C383.59 298.517 383.202 298.676 382.815 298.835C382.428 298.994 382.068 299.14 381.681 299.264C381.487 299.347 381.28 299.417 381.079 299.486C381.056 299.483 381.033 299.483 381.01 299.486C380.588 299.638 380.152 299.769 379.724 299.901C379.724 299.084 379.724 298.275 379.793 297.465C379.793 297.258 379.793 297.043 379.848 296.835C379.848 296.746 379.848 296.642 379.848 296.552C379.848 296.462 379.848 296.4 379.848 296.337C379.952 295.59 380.076 294.863 380.228 294.13C380.36 293.382 380.561 292.647 380.83 291.936C381.097 291.202 381.579 290.566 382.213 290.11C383.859 289.003 386.363 289.757 387.746 288.387C388.043 289.256 388.238 290.157 388.327 291.072C388.513 292.779 388.427 294.505 388.071 296.185Z" fill="#6C63FF"/>
<path d="M370.83 272.354C376.147 272.354 380.457 269.479 380.457 265.933C380.457 262.387 376.147 259.512 370.83 259.512C365.513 259.512 361.203 262.387 361.203 265.933C361.203 269.479 365.513 272.354 370.83 272.354Z" fill="#192534"/>
<path opacity="0.05" d="M362.828 299.521C362.828 299.666 362.828 299.818 362.828 299.978C362.828 300.137 362.828 300.282 362.828 300.434C362.826 300.453 362.826 300.471 362.828 300.49L362.185 300.344C362.175 300.222 362.175 300.1 362.185 299.978C362.184 299.336 362.322 298.702 362.588 298.118C362.854 297.534 363.243 297.014 363.727 296.594C363.791 296.527 363.863 296.469 363.942 296.421C364.313 296.119 364.734 295.885 365.187 295.729C365.602 295.569 366.042 295.484 366.487 295.48C366.547 295.473 366.607 295.473 366.667 295.48C366.777 295.473 366.888 295.473 366.999 295.48H366.77C365.711 295.592 364.729 296.083 364.004 296.864C363.923 296.939 363.851 297.022 363.79 297.113C363.236 297.802 362.901 298.64 362.828 299.521Z" fill="black"/>
<path d="M369.868 299.977C369.868 300.411 369.817 300.843 369.716 301.264C367.86 301.259 366.009 301.087 364.184 300.752L363.852 300.697C363.513 300.642 363.16 300.572 362.835 300.489V300.434C362.835 300.282 362.835 300.137 362.835 299.977C362.835 299.818 362.835 299.666 362.835 299.521C362.893 298.592 363.21 297.698 363.748 296.94C363.809 296.844 363.881 296.756 363.962 296.677C364.285 296.274 364.7 295.956 365.173 295.75C365.535 295.576 365.932 295.487 366.334 295.487C366.38 295.48 366.427 295.48 366.473 295.487C366.567 295.48 366.662 295.48 366.756 295.487C368.506 295.784 369.868 297.68 369.868 299.977Z" fill="#6C63FF"/>
<path opacity="0.05" d="M381.681 299.265C381.487 299.348 381.28 299.417 381.079 299.487C380.98 298.495 380.546 297.568 379.848 296.857L379.641 296.65C378.95 296.029 378.086 295.636 377.165 295.522H376.937C377.042 295.515 377.149 295.515 377.255 295.522C377.317 295.515 377.379 295.515 377.441 295.522C377.888 295.532 378.329 295.616 378.748 295.771C379.081 295.885 379.399 296.038 379.696 296.227C379.773 296.267 379.843 296.318 379.903 296.38C380.375 296.719 380.775 297.149 381.08 297.645C381.385 298.14 381.589 298.691 381.681 299.265Z" fill="black"/>
<path d="M381.079 299.486C381.056 299.483 381.033 299.483 381.01 299.486C380.588 299.638 380.152 299.77 379.724 299.901L379.399 299.977C379.011 300.095 378.624 300.192 378.237 300.275C376.9 300.617 375.541 300.865 374.17 301.015C374.1 300.667 374.065 300.312 374.066 299.957C374.066 297.659 375.45 295.763 377.185 295.5C377.278 295.493 377.37 295.493 377.462 295.5C377.506 295.494 377.55 295.494 377.594 295.5C378 295.499 378.402 295.589 378.769 295.763C379.113 295.916 379.427 296.129 379.696 296.393C379.772 296.45 379.841 296.515 379.903 296.587C380.597 297.401 381.01 298.418 381.079 299.486Z" fill="#6C63FF"/>
<path opacity="0.1" d="M370.83 271.718C365.671 271.718 361.459 269.02 361.21 265.622C361.21 265.726 361.21 265.83 361.21 265.94C361.21 269.49 365.525 272.362 370.844 272.362C376.162 272.362 380.471 269.49 380.471 265.94C380.471 265.83 380.471 265.726 380.471 265.622C380.194 269.02 375.982 271.718 370.83 271.718Z" fill="black"/>
<path d="M335.884 80.3569C335.872 86.0848 337.299 91.724 340.033 96.7563C340.345 97.3167 340.663 97.8772 341.015 98.4239C341.055 98.5066 341.107 98.5834 341.168 98.6522C341.549 99.2642 341.962 99.8555 342.406 100.424C343.842 102.423 345.498 104.254 347.343 105.883C347.686 106.212 348.046 106.521 348.422 106.81C349.607 107.801 350.865 108.701 352.185 109.502L352.392 109.64C353.651 110.395 354.953 111.074 356.293 111.675L357.448 112.152C357.828 112.311 358.188 112.464 358.582 112.588C358.775 112.664 358.976 112.734 359.183 112.803H359.28C359.7 112.955 360.129 113.093 360.567 113.218L360.885 113.294C361.272 113.412 361.666 113.515 362.054 113.592C362.579 113.73 363.098 113.848 363.637 113.944C364.446 114.104 365.283 114.242 366.113 114.339C367.442 114.498 368.779 114.576 370.118 114.574H370.526C372.381 114.563 374.233 114.389 376.058 114.055C376.17 114.044 376.281 114.026 376.39 114C376.729 113.944 377.082 113.875 377.407 113.792C377.628 113.751 377.829 113.702 378.05 113.647C378.742 113.495 379.433 113.315 380.069 113.1C380.478 112.969 380.879 112.844 381.28 112.706C382.089 112.422 382.898 112.118 383.673 111.772C383.794 111.732 383.911 111.683 384.025 111.626L384.178 111.557C385.201 111.096 386.197 110.582 387.165 110.014C387.988 109.544 388.79 109.032 389.565 108.492H389.613C389.74 108.418 389.86 108.335 389.973 108.243C394.76 104.836 398.59 100.254 401.095 94.9378C403.6 89.6217 404.696 83.7501 404.278 77.8876C403.86 72.0251 401.941 66.3689 398.706 61.4628C395.472 56.5567 391.03 52.5657 385.808 49.8735C380.586 47.1814 374.76 45.8787 368.89 46.0906C363.019 46.3026 357.302 48.0221 352.288 51.0837C347.273 54.1454 343.131 58.4464 340.258 63.573C337.385 68.6996 335.879 74.4795 335.884 80.3569Z" fill="#3F3D56"/>
<path d="M377.732 93.9335C378.237 94.3782 378.588 94.9718 378.735 95.6288C377.739 95.8917 376.722 95.4004 375.796 94.9368C372.918 93.5864 369.881 92.6075 366.756 92.0236C366.506 92.0005 366.267 91.9096 366.065 91.7607C365.908 91.5489 365.827 91.2905 365.834 91.027C365.842 90.7635 365.938 90.5101 366.106 90.3076C366.452 89.9478 367.102 89.9962 367.573 89.9755C369.447 89.8795 371.32 90.18 373.071 90.8572C374.822 91.5344 376.41 92.5732 377.732 93.9058V93.9335Z" fill="#6C63FF"/>
<path d="M367.614 91.1791C367.407 91.6974 367.098 92.1686 366.704 92.5645C366.311 92.9604 365.842 93.2729 365.325 93.4833C364.765 93.6839 364.163 93.7185 363.596 93.8777C363.306 93.9382 363.034 94.0654 362.801 94.2491C362.568 94.4328 362.381 94.6681 362.254 94.9364C362.178 95.1779 362.143 95.4305 362.151 95.6837C362.061 98.0709 361.992 100.527 362.946 102.742C363.769 104.638 365.277 106.132 366.771 107.551C368.513 109.218 370.36 110.907 372.656 111.654C373.998 112.09 375.581 112.138 376.695 111.273C377.132 110.894 377.511 110.454 377.822 109.966C378.599 108.948 379.249 107.84 379.759 106.665C380.706 104.229 380.388 101.503 380.056 98.9082C380.054 98.754 379.995 98.6061 379.89 98.493C379.746 98.4031 379.572 98.3733 379.406 98.41C378.812 98.4704 378.214 98.3426 377.696 98.0446C377.179 97.7466 376.768 97.2935 376.522 96.7493C376.379 96.2553 376.325 95.7398 376.363 95.227L376.411 92.2654C376.434 91.9475 376.397 91.6282 376.301 91.3244C376.029 90.8308 375.59 90.4504 375.063 90.2518C373.446 89.4423 371.761 88.7777 370.028 88.2659C369.267 88.0445 368.686 87.6708 368.347 88.4873C368.008 89.3038 368.008 90.321 367.614 91.1791Z" fill="#FBBEBE"/>
<path opacity="0.1" d="M367.614 91.1791C367.407 91.6974 367.098 92.1686 366.704 92.5645C366.311 92.9604 365.842 93.2729 365.325 93.4833C364.765 93.6839 364.163 93.7185 363.596 93.8777C363.306 93.9382 363.034 94.0654 362.801 94.2491C362.568 94.4328 362.381 94.6681 362.254 94.9364C362.178 95.1779 362.143 95.4305 362.151 95.6837C362.061 98.0709 361.992 100.527 362.946 102.742C363.769 104.638 365.277 106.132 366.771 107.551C368.513 109.218 370.36 110.907 372.656 111.654C373.998 112.09 375.581 112.138 376.695 111.273C377.132 110.894 377.511 110.454 377.822 109.966C378.599 108.948 379.249 107.84 379.759 106.665C380.706 104.229 380.388 101.503 380.056 98.9082C380.054 98.754 379.995 98.6061 379.89 98.493C379.746 98.4031 379.572 98.3733 379.406 98.41C378.812 98.4704 378.214 98.3426 377.696 98.0446C377.179 97.7466 376.768 97.2935 376.522 96.7493C376.379 96.2553 376.325 95.7398 376.363 95.227L376.411 92.2654C376.434 91.9475 376.397 91.6282 376.301 91.3244C376.029 90.8308 375.59 90.4504 375.063 90.2518C373.446 89.4423 371.761 88.7777 370.028 88.2659C369.267 88.0445 368.686 87.6708 368.347 88.4873C368.008 89.3038 368.008 90.321 367.614 91.1791Z" fill="black"/>
<path d="M375.622 93.5808C380.611 93.5808 384.655 89.5348 384.655 84.5438C384.655 79.5528 380.611 75.5068 375.622 75.5068C370.634 75.5068 366.59 79.5528 366.59 84.5438C366.59 89.5348 370.634 93.5808 375.622 93.5808Z" fill="#FBBEBE"/>
<path d="M363.624 113.986C364.433 114.145 365.27 114.284 366.1 114.38C367.428 114.539 368.766 114.618 370.104 114.616H370.512C372.368 114.604 374.219 114.431 376.045 114.097C376.156 114.086 376.267 114.067 376.377 114.041C376.716 113.986 377.068 113.917 377.393 113.834C377.615 113.792 377.815 113.744 378.036 113.688C378.728 113.536 379.42 113.356 380.056 113.142C380.464 113.01 380.865 112.886 381.266 112.747C382.075 112.464 382.885 112.159 383.659 111.813C383.46 111.198 383.296 110.572 383.168 109.938C382.945 108.585 382.857 107.212 382.905 105.842C382.905 104.741 382.954 103.648 382.905 102.555C382.923 101.668 382.794 100.784 382.525 99.9393C382.388 99.5171 382.168 99.1265 381.878 98.7903C381.588 98.4541 381.235 98.179 380.837 97.981C379.807 97.5243 378.258 97.2891 377.241 97.8011C377.125 97.8636 377.014 97.9353 376.909 98.0156C376.688 98.2009 376.517 98.4388 376.411 98.7076C376.079 99.5379 375.72 100.375 375.402 101.206C375.197 101.784 374.925 102.337 374.592 102.852C374.09 103.531 373.39 104.037 372.589 104.301C371.788 104.565 370.924 104.574 370.118 104.326C370.016 104.293 369.917 104.254 369.82 104.209C368.437 103.648 367.172 102.437 365.726 102.762C365.326 102.869 364.956 103.065 364.643 103.336C364.331 103.607 364.084 103.946 363.921 104.326C363.901 104.366 363.885 104.408 363.873 104.451C363.582 105.174 363.414 105.942 363.375 106.72C363.166 109.144 363.249 111.583 363.624 113.986Z" fill="#F2F2F2"/>
<path d="M347.343 105.904C347.686 106.232 348.046 106.542 348.422 106.831C349.607 107.822 350.865 108.721 352.184 109.523L352.392 109.661C353.651 110.416 354.953 111.095 356.292 111.696L357.447 112.173C357.828 112.332 358.187 112.484 358.582 112.609C358.775 112.685 358.976 112.754 359.183 112.824H359.28C359.7 112.976 360.128 113.114 360.566 113.239L360.885 113.315C361.272 113.432 361.666 113.536 362.053 113.612C362.579 113.751 363.098 113.868 363.637 113.965C364.446 114.124 365.283 114.263 366.113 114.36C367.442 114.519 368.779 114.597 370.117 114.595H370.525C372.381 114.584 374.232 114.41 376.058 114.076C376.17 114.065 376.281 114.046 376.39 114.021C376.729 113.965 377.082 113.896 377.407 113.813C377.628 113.772 377.829 113.723 378.05 113.668C378.741 113.516 379.433 113.336 380.069 113.121C380.477 112.99 380.878 112.865 381.28 112.727C382.089 112.443 382.898 112.138 383.672 111.793C383.793 111.752 383.911 111.704 384.025 111.647L384.177 111.578C385.201 111.117 386.197 110.602 387.165 110.035C387.844 108.223 388.421 106.375 388.894 104.499C388.891 104.462 388.891 104.425 388.894 104.389C387.815 102.472 386.861 100.479 385.789 98.5623C385.484 97.8407 384.994 97.2124 384.368 96.7409C383.743 96.2695 383.004 95.9716 382.227 95.8775C381.478 95.6302 380.698 95.4859 379.91 95.4485C379.462 95.4067 379.018 95.3304 378.582 95.2202C377.683 95.0195 376.687 94.8257 376.355 95.2202C376.341 95.2305 376.329 95.244 376.321 95.2596C376.313 95.2752 376.308 95.2924 376.307 95.3101C376.183 95.7749 376.239 96.2696 376.466 96.694C376.618 97.1299 376.819 97.5866 376.923 97.9603C376.984 98.1386 377.019 98.3252 377.026 98.5139C377.051 99.3244 377.023 100.136 376.943 100.943C376.75 102.119 376.1 103.157 375.795 104.299C375.657 104.838 375.588 105.399 375.498 105.945C375.306 107.18 374.983 108.391 374.537 109.558C374.456 109.805 374.337 110.039 374.184 110.249C373.617 110.941 372.676 110.678 371.784 110.547C371.134 109.993 371.169 109.011 371.092 108.18C370.902 106.786 370.476 105.433 369.834 104.181L369.599 103.683C368.907 102.25 368.215 100.825 367.565 99.3857C366.728 97.6005 365.864 95.5592 366.556 93.7117C366.756 93.1581 367.081 92.6668 367.303 92.134C367.339 92.0557 367.369 91.9747 367.392 91.8918C367.456 91.6878 367.491 91.4758 367.496 91.2622C367.521 91.0711 367.505 90.877 367.45 90.6923C367.395 90.5076 367.303 90.3364 367.178 90.1896C367.141 90.1331 367.094 90.0839 367.04 90.0443C367.017 90.0198 366.988 90.0008 366.957 89.989C366.729 89.8579 366.474 89.7833 366.211 89.7713C365.949 89.7592 365.688 89.8101 365.449 89.9198C365.176 90.019 364.91 90.1368 364.654 90.2726C363.296 91.038 361.986 91.8861 360.732 92.8121C360.364 93.0307 360.078 93.3636 359.916 93.7601C359.887 94.023 359.843 94.284 359.785 94.542C359.591 95.0333 359.003 95.1786 358.499 95.2893C356.411 95.7717 354.443 96.6753 352.717 97.9448C350.99 99.2143 349.54 100.823 348.457 102.673C348.09 103.267 347.802 103.907 347.599 104.575C347.476 105.01 347.39 105.455 347.343 105.904Z" fill="#6C63FF"/>
<path d="M379.599 79.4437C378.375 80.6962 376.418 80.7446 374.668 80.7169L374.723 80.025L372.268 80.9038C372.907 80.4304 373.453 79.8441 373.88 79.1739C373.709 79.0467 373.505 78.9719 373.293 78.9583C373.08 78.9448 372.869 78.9933 372.683 79.0978C372.315 79.3118 372.008 79.6168 371.791 79.9835C371.094 81.0285 370.65 82.222 370.495 83.469C370.34 84.716 370.478 85.982 370.899 87.166C370.649 87.2889 370.371 87.3441 370.093 87.3258C369.815 87.3076 369.547 87.2167 369.315 87.0622C368.854 86.7458 368.5 86.2971 368.299 85.7751C368.153 85.443 368.001 85.0832 367.655 84.9517C367.506 84.9152 367.349 84.9293 367.209 84.9919C367.069 85.0546 366.953 85.1622 366.881 85.2977C366.735 85.5662 366.677 85.8734 366.715 86.1765C366.763 86.8685 367.282 87.5604 367.406 88.2524C367.531 88.9443 368.554 89.4979 368.015 89.9615C367.383 90.1995 366.723 90.3553 366.051 90.4251C365.918 90.3851 365.797 90.3132 365.698 90.2155C365.599 90.1177 365.525 89.9973 365.484 89.8646C364.937 88.6606 365.131 87.2559 364.792 85.9758C364.478 84.9597 363.997 84.0032 363.368 83.1457C363.216 82.8837 363.035 82.6399 362.828 82.4192C362.611 82.26 362.431 82.0543 362.303 81.8171C362.213 81.568 362.386 81.2013 362.648 81.2498C362.219 80.8339 361.757 80.4543 361.265 80.1149C361.749 79.506 362.22 78.8833 362.648 78.2605C362.807 78.0391 362.973 77.7692 362.856 77.527C362.789 77.4141 362.694 77.321 362.579 77.2571L361.355 76.4268C361.355 75.8456 362.51 76.0601 362.69 75.5134C362.735 75.3692 362.735 75.2148 362.69 75.0706L362.261 73.5067L363.893 74.2471C364.082 74.3558 364.298 74.4063 364.516 74.3925C364.944 74.3302 365.152 73.825 365.207 73.3891C365.163 72.953 365.22 72.5126 365.373 72.1021C366.113 72.1021 366.853 72.1021 367.586 72.1021C367.634 71.732 367.538 71.3576 367.317 71.0572L372.766 70.7528C373.692 70.6472 374.63 70.7129 375.533 70.9465C375.82 71.0823 376.134 71.1531 376.452 71.1541C376.764 71.1541 377.082 70.8289 376.992 70.5244C377.809 70.9859 378.557 71.5614 379.212 72.2336C379.386 72.4454 379.6 72.6216 379.841 72.7525C379.964 72.8157 380.102 72.8409 380.239 72.8248C380.376 72.8088 380.504 72.7523 380.609 72.6626C380.761 72.5034 380.83 72.2197 381.051 72.2059C381.273 72.192 381.3 72.3166 381.383 72.4204C381.695 72.821 381.949 73.2636 382.137 73.7351C382.529 73.6818 382.912 73.5795 383.278 73.4306C383.108 73.613 382.996 73.8431 382.959 74.0903C382.922 74.3374 382.961 74.59 383.071 74.8145C383.251 75.2782 383.583 75.6726 383.804 76.1154C384.022 76.5943 384.169 77.1025 384.24 77.6239C384.35 78.2743 384.35 79.0978 383.776 79.4161C383.504 79.51 383.211 79.5261 382.93 79.4625C382.649 79.399 382.391 79.2583 382.186 79.0562C380.865 78.1152 380.623 78.392 379.599 79.4437Z" fill="#192534"/>
<path d="M348.422 106.831C349.607 107.821 350.865 108.721 352.185 109.523L352.392 109.661C353.651 110.416 354.953 111.095 356.293 111.695L357.448 112.173C357.828 112.332 358.188 112.484 358.582 112.609C358.775 112.685 358.976 112.754 359.183 112.823C358.941 112.131 358.782 111.439 358.568 110.747C357.997 108.899 356.978 107.221 355.601 105.862C354.412 104.672 352.517 102.935 350.76 103.987C350.225 104.348 349.756 104.8 349.377 105.322C349.04 105.707 348.752 106.133 348.519 106.589C348.485 106.651 348.457 106.734 348.422 106.831Z" fill="#6C63FF"/>
<path d="M381.308 112.741C382.117 112.457 382.926 112.153 383.701 111.807C383.821 111.767 383.939 111.718 384.053 111.662L384.205 111.592C385.229 111.131 386.225 110.617 387.193 110.049C388.016 109.579 388.818 109.067 389.593 108.527H389.641C389.579 107.756 389.579 106.98 389.641 106.209C389.681 105.95 389.665 105.686 389.593 105.434C389.497 105.235 389.366 105.054 389.206 104.901C389.104 104.799 389.009 104.691 388.922 104.576C388.141 103.697 387.504 102.749 386.156 102.888C384.807 103.026 383.645 104.188 383.078 105.482C383.016 105.607 382.965 105.737 382.926 105.87C382.54 107.072 382.24 108.3 382.027 109.544C381.847 110.312 381.619 111.053 381.453 111.821C381.411 112.104 381.349 112.423 381.308 112.741Z" fill="#6C63FF"/>
<path d="M225.409 316.612L225.105 316.778L225.409 316.612Z" fill="url(#paint0_linear)"/>
<path d="M182.925 279.239C180.256 286.934 183.375 299.424 184.82 304.994C185.779 309.024 186.412 313.124 186.715 317.255C189.968 317.809 193.297 317.734 196.522 317.034L194.185 305.554C195.851 298.753 194.185 280.582 194.185 280.582C194.185 280.582 197.968 273.558 198.334 262.854C198.659 252.322 201.253 248.918 201.336 248.807C206.682 251.575 213.48 281.474 213.48 281.474C212.92 288.719 213.59 299.867 215.817 305.887C217.168 309.711 217.737 313.767 217.491 317.816C217.924 318.127 218.419 318.34 218.942 318.44C219.465 318.541 220.003 318.526 220.52 318.397C223.702 317.885 227.519 315.138 227.519 315.138C227.519 315.138 226.295 282.616 225.403 281.364C224.511 280.111 225.403 273.116 225.403 273.116L223.951 261.74C223.951 261.74 224.172 242.455 222.056 239.113C220.23 236.22 219.808 231.148 219.725 229.813C219.725 229.605 219.725 229.488 219.725 229.488L216.502 225.62C216.502 225.62 185.305 223.281 182.96 225.62C182.386 226.194 182.033 227.502 181.819 229.149C181.176 234.207 181.916 242.455 181.916 242.455C181.916 242.455 182.849 248.586 184.191 254.827C184.993 258.577 184.993 262.453 184.191 266.203C184.617 270.589 184.188 275.017 182.925 279.239Z" fill="#575A89"/>
<path d="M184.848 328.126C186.231 329.967 194.433 329.185 195.823 328.611C196.674 328.265 196.612 326.659 196.383 325.012C196.238 323.961 196.024 322.888 195.934 322.106C195.713 320.1 196.625 316.031 196.625 316.031C196.625 316.031 194.786 317.982 194.343 316.031C194.24 315.659 194.037 315.322 193.757 315.056C193.476 314.791 193.129 314.606 192.753 314.522C191.799 314.233 190.772 314.297 189.862 314.702C188.409 315.325 185.996 316.667 186.404 318.48C187.012 321.041 184.841 324.708 184.841 324.708C184.448 325.199 184.234 325.809 184.234 326.438C184.234 327.067 184.448 327.677 184.841 328.168L184.848 328.126Z" fill="#CBCEDA"/>
<path opacity="0.1" d="M184.848 328.127C186.231 329.967 194.433 329.185 195.823 328.611C196.674 328.265 196.612 326.66 196.384 325.013C195.505 325.421 194.005 325.767 191.543 325.532C190.961 325.479 190.377 325.46 189.793 325.476C188.02 325.56 186.243 325.526 184.474 325.373C184.277 325.821 184.207 326.316 184.273 326.802C184.339 327.288 184.538 327.747 184.848 328.127Z" fill="black"/>
<path opacity="0.1" d="M213.431 281.474C212.871 288.719 213.542 299.867 215.769 305.887C217.12 309.711 217.689 313.768 217.443 317.816C217.875 318.127 218.37 318.34 218.893 318.44C219.416 318.541 219.955 318.526 220.472 318.397C219.78 313.699 216.938 293.438 215.098 277.433C213.767 266.348 209.69 255.771 203.237 246.662L201.287 248.807C206.633 251.596 213.431 281.474 213.431 281.474Z" fill="black"/>
<path d="M188.195 164.305L189.578 170.996L196.245 182.199L204.461 178.691C204.461 178.691 215.631 166.983 208.611 165.308C207.769 165.132 206.975 164.778 206.28 164.271C205.679 163.791 205.2 163.175 204.884 162.473C204.567 161.772 204.423 161.005 204.461 160.236C204.516 158.578 204.904 156.947 205.603 155.441L191.224 150.937C191.813 152.827 192.159 154.785 192.255 156.763C192.366 160.679 190.906 162.61 189.717 163.53C189.266 163.887 188.749 164.15 188.195 164.305Z" fill="#FBBEBE"/>
<path opacity="0.1" d="M191.224 150.937C191.812 152.827 192.159 154.785 192.255 156.763C192.514 157.076 192.793 157.372 193.091 157.649C195.194 159.666 197.993 160.794 200.906 160.797C202.1 160.799 203.286 160.61 204.42 160.236C204.474 158.577 204.862 156.947 205.561 155.441L191.224 150.937Z" fill="black"/>
<path d="M189.551 149.09C189.55 151.34 190.216 153.541 191.465 155.413C192.714 157.285 194.49 158.744 196.568 159.606C198.646 160.467 200.933 160.693 203.14 160.254C205.346 159.814 207.372 158.73 208.963 157.138C210.553 155.546 211.635 153.518 212.073 151.31C212.511 149.102 212.284 146.814 211.422 144.735C210.559 142.656 209.1 140.88 207.228 139.632C205.356 138.383 203.156 137.718 200.907 137.721C199.413 137.714 197.933 138.004 196.552 138.573C195.171 139.142 193.916 139.98 192.86 141.037C191.804 142.094 190.968 143.35 190.4 144.732C189.832 146.114 189.544 147.595 189.551 149.09Z" fill="#FBBEBE"/>
<path opacity="0.1" d="M188.195 164.305L189.578 170.997L196.245 182.199L204.461 178.691C204.461 178.691 215.631 166.983 208.611 165.309C207.769 165.132 206.975 164.778 206.28 164.271C207.546 167.731 202.318 175.01 202.318 175.01C201.709 175.903 200.312 175.342 200.312 175.342C196.937 174.83 190.733 165.136 189.724 163.523C189.271 163.883 188.752 164.149 188.195 164.305Z" fill="black"/>
<path opacity="0.1" d="M181.756 229.128C183.734 229.578 194.682 232.007 198.832 231.398C203.403 230.706 212.283 230.284 212.283 230.284C212.283 230.284 217.94 230.588 219.676 229.792C219.676 229.585 219.676 229.467 219.676 229.467L216.453 225.599C216.453 225.599 185.256 223.26 182.911 225.599C182.323 226.194 181.971 227.502 181.756 229.128Z" fill="black"/>
<path d="M202.29 175.342C202.29 175.342 208.168 167.197 205.948 164.021L215.879 168.097C215.879 168.097 221.855 167.37 224.012 176.297C224.358 177.781 224.484 179.308 224.386 180.829C224.327 183.191 224.89 185.527 226.018 187.603C228.473 192.509 227.913 203.767 222.899 204.902C217.885 206.037 216.101 205.456 216.101 205.456C216.101 205.456 216.792 225.854 219.669 228.2C222.546 230.546 212.283 229.985 212.283 229.985C212.283 229.985 203.403 230.428 198.832 231.1C194.26 231.771 181.452 228.754 181.452 228.754C181.452 228.754 183.347 220.174 184.011 214.707C184.675 209.241 186.245 197.616 186.245 197.616L174.875 182.213C174.875 182.213 172.869 172.906 179.889 168.782C186.909 164.658 189.571 163.641 189.571 163.641C189.571 163.641 196.626 175.134 200.305 175.695C200.284 175.681 201.681 176.241 202.29 175.342Z" fill="#3F3D56"/>
<path opacity="0.1" d="M215.326 178.573C215.326 178.573 215.437 182.254 214.766 183.708C214.095 185.161 211.647 193.18 211.647 193.18H217.214C217.214 193.18 214.206 189.949 214.448 188.385C214.69 186.821 215.326 178.573 215.326 178.573Z" fill="black"/>
<path d="M198.832 206.334C198.832 206.334 211.135 203.324 212.283 200.757C213.431 198.19 216.592 192.454 216.592 192.454L215.292 190.703L209.309 195.402C209.309 195.402 202.179 201.089 198.832 201.629C195.485 202.169 198.832 206.334 198.832 206.334Z" fill="#FBBEBE"/>
<path opacity="0.05" d="M198.832 206.334C198.832 206.334 211.135 203.324 212.283 200.757C213.431 198.19 216.592 192.454 216.592 192.454L215.292 190.703L209.309 195.402C209.309 195.402 202.179 201.089 198.832 201.629C195.485 202.169 198.832 206.334 198.832 206.334Z" fill="black"/>
<path d="M188.195 191.845V198.522H189.267C194.567 198.522 199.779 199.872 204.413 202.446L206.426 203.56L206.965 203.864L210.423 196.08L207.193 193.181H207.027C206.232 193.257 202.816 193.547 201.37 193.056C199.925 192.565 198.286 191.105 194.226 192.143C192.234 192.655 190.526 194.91 188.59 194.218L188.195 191.845Z" fill="#FBBEBE"/>
<path opacity="0.1" d="M177.441 179.695L175.214 182.199V188.303C175.214 188.303 177.109 207.477 183.126 209.594C189.142 211.711 199.883 208.369 199.883 208.369C199.883 208.369 202.649 201.014 201.356 200.564C200.063 200.114 189.889 197.429 189.889 197.429C189.889 197.429 190.028 186.185 187.815 182.843C187.815 182.843 189.267 172.36 184.253 172.138C179.239 171.917 177.441 179.695 177.441 179.695Z" fill="black"/>
<path d="M177.109 179.695L174.875 182.199V188.303C174.875 188.303 176.77 207.477 182.787 209.594C188.804 211.711 199.523 208.369 199.523 208.369C199.523 208.369 202.29 201.014 201.003 200.564C199.717 200.114 189.53 197.429 189.53 197.429C189.53 197.429 189.675 186.185 187.455 182.843C187.455 182.843 188.9 172.36 183.886 172.138C178.872 171.917 177.109 179.695 177.109 179.695Z" fill="#3F3D56"/>
<path opacity="0.1" d="M192.67 153.919C192.572 153.187 192.66 152.442 192.926 151.753C193.066 151.414 193.314 151.13 193.632 150.945C193.949 150.76 194.318 150.684 194.682 150.729C195.637 150.951 196.065 152.196 196.985 152.494C197.39 152.575 197.811 152.516 198.178 152.326C198.545 152.136 198.837 151.827 199.005 151.449C199.324 150.681 199.457 149.849 199.392 149.02C199.392 148.093 199.392 147.159 199.392 146.252C199.392 145.346 199.427 144.142 200.049 143.346C200.83 142.357 202.656 141.921 203.873 141.962C204.685 141.968 205.463 142.282 206.052 142.841C206.35 143.139 206.711 143.367 207.108 143.509C207.505 143.65 207.929 143.701 208.348 143.657C208.719 143.601 209.066 143.441 209.349 143.197C209.633 142.952 209.842 142.632 209.953 142.273C209.949 142.262 209.949 142.25 209.953 142.239C209.004 140.989 207.808 139.949 206.439 139.185C205.07 138.42 203.557 137.947 201.996 137.796C200.435 137.645 198.86 137.819 197.37 138.306C195.879 138.794 194.506 139.585 193.336 140.63C192.166 141.674 191.225 142.95 190.571 144.376C189.918 145.803 189.567 147.349 189.54 148.917C189.513 150.486 189.811 152.044 190.415 153.491C191.019 154.939 191.917 156.246 193.05 157.33C192.857 156.202 192.73 155.063 192.67 153.919Z" fill="black"/>
<path d="M208.362 143.325C208.732 143.267 209.078 143.107 209.362 142.862C209.645 142.618 209.855 142.299 209.967 141.941C210.056 141.581 210.036 141.194 210.139 140.841C210.402 139.962 211.336 139.505 211.958 138.841C213.217 137.506 213.134 135.312 212.242 133.714C211.55 132.42 210.167 131.333 208.68 131.583C207.781 131.742 207 132.385 206.087 132.441C205.206 132.379 204.354 132.104 203.604 131.638C201.671 130.762 199.498 130.569 197.442 131.091C196.809 131.217 196.223 131.514 195.748 131.949C195.424 132.354 195.124 132.777 194.848 133.216C193.804 134.544 191.944 134.8 190.291 135.098C188.638 135.395 186.764 136.053 186.217 137.651C185.858 138.703 186.217 139.851 186.411 140.952C186.485 141.179 186.47 141.426 186.37 141.644C186.114 142.073 185.464 141.893 184.986 141.996C184.053 142.19 183.811 143.38 183.776 144.363C183.735 145.463 183.707 146.563 183.686 147.664C183.627 148.175 183.692 148.693 183.873 149.174C184.055 149.656 184.349 150.087 184.73 150.431L188.41 154.853C190.042 156.818 191.771 159.102 191.446 161.634C192.213 161.98 193.133 161.309 193.389 160.499C193.562 159.665 193.519 158.801 193.265 157.988C192.967 156.553 192.773 155.098 192.684 153.635C192.586 152.903 192.674 152.158 192.94 151.469C193.08 151.128 193.329 150.843 193.648 150.658C193.966 150.472 194.338 150.398 194.703 150.445C195.658 150.667 196.086 151.905 197.006 152.21C197.411 152.29 197.832 152.23 198.198 152.04C198.565 151.85 198.857 151.542 199.026 151.165C199.345 150.397 199.478 149.565 199.413 148.736V145.968C199.413 144.958 199.448 143.892 200.07 143.062C200.851 142.073 202.677 141.644 203.894 141.678C204.704 141.691 205.481 142.004 206.073 142.557C206.374 142.847 206.735 143.066 207.131 143.199C207.527 143.332 207.947 143.375 208.362 143.325Z" fill="#3F3D56"/>
<path opacity="0.1" d="M205.796 178.297L202.338 192.641C202.338 192.641 199.558 192.62 205.796 178.297Z" fill="black"/>
<path opacity="0.1" d="M193.873 175.902C193.873 175.902 198.444 183.389 196.639 191.125L195.789 191.188C195.789 191.188 197.331 187.61 193.873 175.902Z" fill="black"/>
<path opacity="0.1" d="M190.975 218.264C190.975 218.264 185.367 216.41 184.958 220.714C184.958 220.714 186.017 217.759 190.975 218.264Z" fill="black"/>
<path opacity="0.1" d="M207.193 193.513C207.193 193.513 208.306 201.318 206.301 204.439C209.448 205.553 212.791 206.007 216.121 205.774L216.813 193.513H207.193Z" fill="black"/>
<path opacity="0.1" d="M206.439 203.56L206.979 203.864L210.437 196.08L207.207 193.181H207.034C207.076 193.554 207.975 200.259 206.439 203.56Z" fill="black"/>
<path d="M207.193 193.181C207.193 193.181 208.306 200.986 206.301 204.107C209.449 205.216 212.791 205.671 216.121 205.442L220.022 193.181H207.193Z" fill="#3F3D56"/>
<path d="M216.813 323.38C216.877 323.936 217.125 324.455 217.517 324.855C217.909 325.255 218.423 325.512 218.978 325.587C222 326.044 229.289 327.192 231.129 328.071C233.473 329.185 242.72 328.403 243.162 327.289C243.225 327.067 243.244 326.835 243.216 326.605C243.189 326.376 243.117 326.155 243.003 325.954C242.689 325.272 242.165 324.707 241.51 324.341C241.288 324.223 241.056 324.124 240.818 324.044C239.075 323.463 235.79 322.231 234.898 320.937C234.898 320.937 230.797 317.346 229.628 315.401C229.408 315.019 229.097 314.698 228.723 314.465C228.349 314.232 227.924 314.095 227.484 314.066C226.509 314.024 225.409 314.516 224.981 316.654C224.981 316.654 219.635 319.705 218.189 317.027C218.189 317.027 217.961 321.138 217.076 322.266C216.845 322.588 216.75 322.988 216.813 323.38Z" fill="#CBCEDA"/>
<path opacity="0.1" d="M216.813 323.38C216.877 323.936 217.125 324.455 217.517 324.855C217.909 325.255 218.423 325.512 218.978 325.587C222 326.044 229.289 327.192 231.129 328.071C233.473 329.185 242.72 328.403 243.162 327.289C243.225 327.067 243.244 326.835 243.216 326.605C243.189 326.376 243.117 326.155 243.003 325.954C242.689 325.272 242.165 324.707 241.51 324.341C240.002 325.345 236.668 326.327 229.296 325.172C222.27 324.078 218.791 322.999 217.096 322.272C216.86 322.59 216.758 322.988 216.813 323.38Z" fill="black"/>
<g opacity="0.1">
<path opacity="0.1" d="M186.425 141.083C186.425 141.083 186.425 141.048 186.425 141.035C186.211 140.207 186.097 139.357 186.086 138.502C186.14 139.193 186.239 139.879 186.383 140.557C186.434 140.727 186.448 140.907 186.425 141.083Z" fill="black"/>
<path opacity="0.1" d="M192.926 151.518C192.751 151.922 192.657 152.357 192.649 152.798C192.6 152.191 192.694 151.582 192.926 151.019C193.067 150.679 193.316 150.394 193.634 150.209C193.953 150.024 194.324 149.949 194.689 149.995C195.644 150.217 196.072 151.462 196.992 151.76C197.397 151.841 197.818 151.782 198.185 151.592C198.552 151.402 198.844 151.093 199.012 150.715C199.332 149.948 199.465 149.115 199.399 148.286C199.399 147.359 199.399 146.425 199.399 145.518C199.399 144.612 199.433 143.408 200.056 142.612C200.837 141.623 202.663 141.187 203.88 141.228C204.692 141.234 205.47 141.548 206.059 142.107C206.357 142.405 206.718 142.633 207.115 142.775C207.512 142.916 207.936 142.967 208.355 142.923C208.726 142.868 209.073 142.708 209.357 142.464C209.641 142.219 209.85 141.898 209.959 141.54C210.049 141.18 210.029 140.792 210.132 140.439C210.395 139.561 211.329 139.104 211.951 138.44C212.539 137.795 212.874 136.959 212.892 136.087C212.939 136.602 212.88 137.122 212.718 137.614C212.556 138.105 212.295 138.558 211.951 138.945C211.329 139.637 210.395 140.066 210.132 140.938C210.029 141.297 210.049 141.678 209.959 142.038C209.849 142.396 209.64 142.716 209.356 142.961C209.072 143.206 208.725 143.365 208.355 143.422C207.935 143.465 207.511 143.414 207.113 143.272C206.716 143.129 206.355 142.899 206.059 142.598C205.468 142.043 204.691 141.729 203.88 141.719C202.663 141.678 200.837 142.114 200.056 143.103C199.433 143.899 199.406 144.999 199.399 146.01C199.392 147.02 199.399 147.871 199.399 148.777C199.464 149.604 199.331 150.434 199.012 151.199C198.846 151.579 198.555 151.89 198.187 152.08C197.819 152.27 197.397 152.328 196.992 152.244C196.058 151.947 195.644 150.708 194.689 150.487C194.323 150.438 193.95 150.513 193.631 150.7C193.312 150.887 193.064 151.174 192.926 151.518Z" fill="black"/>
<path opacity="0.1" d="M183.769 148.452C183.974 149.025 184.297 149.548 184.716 149.988L188.396 154.41C189.945 156.271 191.584 158.423 191.459 160.804C191.349 158.624 189.834 156.652 188.396 154.908L184.716 150.487C184.335 150.142 184.041 149.711 183.859 149.229C183.677 148.748 183.613 148.23 183.672 147.719C183.672 147.966 183.704 148.213 183.769 148.452Z" fill="black"/>
<path opacity="0.1" d="M193.375 160.056C193.436 159.861 193.473 159.658 193.486 159.454C193.515 159.825 193.478 160.197 193.375 160.554C193.119 161.364 192.206 162.035 191.432 161.682C191.453 161.522 191.465 161.36 191.466 161.198C191.871 161.297 192.297 161.232 192.655 161.019C193.012 160.805 193.271 160.459 193.375 160.056Z" fill="black"/>
</g>
<path opacity="0.1" d="M230.396 316.418C230.396 316.418 229.234 318.494 225.015 316.66L230.396 316.418Z" fill="black"/>
<path opacity="0.1" d="M194.717 316.909C194.717 316.909 191.079 321.199 186.494 318.293L194.717 316.909Z" fill="black"/>
<path opacity="0.1" d="M184.128 266.203C184.128 266.203 186.694 267.808 186.784 268.729C186.874 269.649 185.456 268.037 185.456 268.037L184.128 266.203Z" fill="black"/>
<path opacity="0.1" d="M183.112 278.526C184.005 279.273 185.117 279.708 186.279 279.765C188.202 279.848 188.043 282.353 186.784 281.606C185.484 280.674 184.256 279.645 183.112 278.526Z" fill="black"/>
<path opacity="0.1" d="M182.621 280.132C182.621 280.132 183.859 286.2 184.862 285.031L182.621 280.132Z" fill="black"/>
<path d="M57.6024 318.135C59.6772 314.322 57.3189 309.651 54.6355 306.254C51.9522 302.856 48.6809 299.334 48.7501 294.982C48.8538 288.754 55.4585 285.073 60.7353 281.772C64.6536 279.325 68.2661 276.419 71.4965 273.116C72.8481 271.844 73.9669 270.345 74.8023 268.688C75.895 266.252 75.8604 263.484 75.7912 260.82C75.5607 251.931 75.1227 243.053 74.4772 234.187" stroke="#3F3D56" stroke-width="4" stroke-miterlimit="10"/>
<path d="M84.5124 233.702C84.4388 232.075 83.9567 230.494 83.1106 229.103C82.2644 227.712 81.0815 226.557 79.6712 225.744L77.4997 230.041L77.5619 224.838C75.5933 224.262 73.4929 224.327 71.5636 225.023C69.6342 225.719 67.9755 227.01 66.8266 228.71C65.6776 230.409 65.0978 232.43 65.1707 234.481C65.2435 236.532 65.9653 238.506 67.232 240.12C68.4987 241.734 70.2448 242.903 72.2187 243.46C74.1926 244.017 76.2923 243.933 78.2151 243.219C80.1378 242.505 81.7844 241.199 82.9174 239.488C84.0504 237.778 84.6113 235.752 84.5193 233.702H84.5124Z" fill="#57B894"/>
<path d="M67.2018 299.431C66.1837 301.405 64.5182 302.97 62.4845 303.862C60.4508 304.754 58.1725 304.919 56.0314 304.33C53.8903 303.741 52.0165 302.434 50.7241 300.628C49.4317 298.821 48.7991 296.625 48.9325 294.407C49.0659 292.19 49.9571 290.085 51.4567 288.447C52.9564 286.808 54.9733 285.735 57.1695 285.408C59.3657 285.08 61.6078 285.518 63.5199 286.647C65.432 287.777 66.8979 289.53 67.6721 291.612L61.6068 296.545L68.2807 295.002C68.2782 296.543 67.9083 298.062 67.2018 299.431Z" fill="#57B894"/>
<path d="M62.4089 280.575C59.9972 280.746 57.6091 280.007 55.7141 278.505C53.8191 277.003 52.5543 274.846 52.1685 272.458C51.7827 270.07 52.3038 267.624 53.6293 265.601C54.9548 263.578 56.9888 262.124 59.3313 261.526L59.276 265.525L61.4753 261.173C62.7488 261.11 64.022 261.3 65.2219 261.732C66.4219 262.163 67.5248 262.827 68.4675 263.686C69.4102 264.545 70.174 265.582 70.7152 266.737C71.2563 267.892 71.5641 269.143 71.6209 270.417C71.6777 271.538 71.5372 272.66 71.2059 273.732C70.6227 275.64 69.4646 277.322 67.89 278.547C66.3154 279.771 64.4012 280.48 62.4089 280.575Z" fill="#57B894"/>
<path d="M85.9711 264.889C84.481 264.944 82.9981 264.655 81.6381 264.043C80.2781 263.431 79.0778 262.513 78.1306 261.361C77.1835 260.209 76.5152 258.853 76.1778 257.4C75.8404 255.946 75.8431 254.435 76.1856 252.983C76.5282 251.531 77.2013 250.177 78.1525 249.028C79.1037 247.879 80.3073 246.966 81.6695 246.359C83.0316 245.752 84.5155 245.468 86.0054 245.529C87.4953 245.59 88.951 245.994 90.2589 246.711L88.5438 251.416L92.0778 248.026C93.968 249.758 95.0946 252.169 95.2107 254.731C95.2568 255.63 95.1753 256.532 94.9687 257.408C94.4843 259.464 93.3443 261.306 91.721 262.655C90.0977 264.005 88.0793 264.789 85.9711 264.889Z" fill="#57B894"/>
<path opacity="0.1" d="M83.2051 236.29C80.9644 236.532 78.7859 237.231 76.5382 237.369C74.2906 237.508 71.8216 236.968 70.3969 235.224C69.6362 234.283 69.2489 233.086 68.6057 232.062C67.9914 231.104 67.1505 230.313 66.1575 229.758C65.5719 230.983 65.2501 232.317 65.2131 233.674C65.1761 235.031 65.4246 236.381 65.9426 237.636C66.4606 238.891 67.2365 240.023 68.2199 240.959C69.2033 241.894 70.3723 242.613 71.6511 243.067C72.9298 243.522 74.2898 243.702 75.6427 243.597C76.9957 243.491 78.3114 243.103 79.5045 242.456C80.6976 241.809 81.7415 240.918 82.5685 239.842C83.3955 238.765 83.987 237.527 84.3048 236.207C83.9405 236.221 83.574 236.248 83.2051 236.29Z" fill="black"/>
<path opacity="0.1" d="M85.9712 264.888C84.2972 264.973 82.6299 264.622 81.1323 263.869C79.6347 263.115 78.3581 261.986 77.4276 260.591C76.497 259.196 75.9443 257.584 75.8235 255.911C75.7027 254.238 76.018 252.563 76.7385 251.049C77.5087 251.567 78.171 252.23 78.6888 253C79.3804 254.045 79.8022 255.256 80.6114 256.211C82.126 257.989 84.7056 258.57 87.0501 258.467C89.3946 258.363 91.6561 257.692 93.966 257.477C94.291 257.477 94.6161 257.429 94.948 257.422C94.4621 259.471 93.324 261.307 91.7051 262.654C90.0862 264 88.0739 264.784 85.9712 264.888Z" fill="black"/>
<path opacity="0.1" d="M62.4089 280.575C60.7499 280.661 59.0969 280.317 57.6088 279.579C56.1207 278.84 54.8476 277.731 53.912 276.357C52.9763 274.984 52.4095 273.393 52.2661 271.737C52.1227 270.081 52.4075 268.416 53.0932 266.902C53.8996 267.427 54.6029 268.096 55.168 268.874C55.9218 269.94 56.3921 271.165 57.2773 272.147C58.9164 273.974 61.6689 274.618 64.1448 274.555C66.6207 274.493 68.8683 273.919 71.2543 273.732C70.6682 275.648 69.5029 277.335 67.9187 278.56C66.3346 279.786 64.4096 280.49 62.4089 280.575Z" fill="black"/>
<path opacity="0.1" d="M67.2019 299.431C66.1518 301.779 64.2124 303.613 61.8104 304.531C59.4084 305.448 56.7405 305.374 54.3936 304.323C52.0468 303.272 50.2132 301.332 49.2962 298.929C48.3792 296.525 48.454 293.856 49.5041 291.508C50.3069 292.03 51.0252 292.672 51.6342 293.411C52.5609 294.532 53.1695 295.812 54.2346 296.87C56.2194 298.822 59.4215 299.638 62.2777 299.701C63.923 299.708 65.5673 299.618 67.2019 299.431Z" fill="black"/>
<path d="M42.9614 313.747C42.9614 313.747 50.6242 313.546 52.9065 311.865C55.1887 310.183 64.6635 308.26 65.2582 310.896C65.853 313.533 76.7732 324.043 68.1214 324.085C59.4696 324.126 48.0308 322.701 45.7209 321.317C43.411 319.933 42.9614 313.747 42.9614 313.747Z" fill="#656380"/>
<path opacity="0.2" d="M68.3081 323.165C59.6564 323.241 48.2106 321.823 45.9076 320.397C44.151 319.325 43.4525 315.484 43.2173 313.72H42.9614C42.9614 313.72 43.4455 319.899 45.7278 321.331C48.01 322.764 59.4835 324.154 68.1283 324.099C70.625 324.099 71.4895 323.193 71.441 321.878C71.116 322.66 70.1962 323.151 68.3081 323.165Z" fill="black"/>
</g>
<defs>
<linearGradient id="paint0_linear" x1="225.257" y1="316.778" x2="225.257" y2="316.612" gradientUnits="userSpaceOnUse">
<stop stop-color="#808080" stop-opacity="0.25"/>
<stop offset="0.54" stop-color="#808080" stop-opacity="0.12"/>
<stop offset="1" stop-color="#808080" stop-opacity="0.1"/>
</linearGradient>
<clipPath id="clip0">
<rect width="814" height="342" fill="white"/>
</clipPath>
</defs>
</svg>
