<svg width="583" height="353" viewBox="0 0 583 353" fill="none" xmlns="http://www.w3.org/2000/svg">
<g clip-path="url(#clip0)">
<path opacity="0.1" d="M576.85 329.233C574.596 334.798 571.824 340.138 568.571 345.182C567.044 347.588 565.369 349.897 563.557 352.094L563.501 352.16H2.8252L2.9261 352.089C3.4306 351.695 6.39201 349.291 10.9981 345.177C14.3026 342.222 18.4496 338.387 23.1061 333.772C61.1908 296.2 134.348 207.268 73.4199 125.8C16.7797 50.0652 77.7636 36.3168 117.992 34.7178C133.45 34.1159 148.87 36.644 163.332 42.1511C181.913 49.2353 215.881 60.0994 260.135 65.0735C261.588 65.2388 263.055 65.3974 264.534 65.5492C287.965 67.9401 311.553 68.3683 335.053 66.8294C335.745 66.794 336.441 66.7434 337.142 66.6928C360.39 65.0511 383.462 61.4696 406.117 55.9855C407.585 55.6263 409.033 55.2872 410.476 54.9735C485.965 37.4553 555.555 97.1598 538.16 164.637C531.723 189.588 533.357 216.194 554.809 237.71C589.897 272.848 585.623 307.439 576.85 329.233Z" fill="#6C63FF"/>
<path d="M457.596 140.178C459.507 136.751 458.94 132.786 456.33 131.323C453.721 129.859 450.057 131.451 448.146 134.879C446.236 138.306 446.803 142.27 449.412 143.734C452.022 145.197 455.686 143.605 457.596 140.178Z" fill="#3F3D56"/>
<path d="M461.822 132.593C463.732 129.166 463.165 125.201 460.556 123.738C457.946 122.274 454.282 123.866 452.372 127.294C450.461 130.721 451.028 134.685 453.638 136.149C456.247 137.612 459.911 136.02 461.822 132.593Z" fill="#3F3D56"/>
<path d="M466.052 125.01C467.962 121.583 467.395 117.618 464.786 116.155C462.176 114.691 458.512 116.283 456.602 119.711C454.691 123.138 455.258 127.102 457.868 128.566C460.477 130.029 464.141 128.437 466.052 125.01Z" fill="#3F3D56"/>
<path d="M470.277 117.42C472.188 113.993 471.621 110.028 469.011 108.565C466.402 107.102 462.738 108.694 460.827 112.121C458.917 115.548 459.484 119.512 462.093 120.976C464.703 122.439 468.367 120.847 470.277 117.42Z" fill="#3F3D56"/>
<path d="M474.5 109.84C476.411 106.413 475.844 102.448 473.234 100.985C470.625 99.5215 466.961 101.113 465.05 104.541C463.14 107.968 463.707 111.932 466.316 113.396C468.926 114.859 472.59 113.267 474.5 109.84Z" fill="#3F3D56"/>
<path d="M478.731 102.255C480.641 98.8279 480.075 94.8633 477.465 93.3999C474.856 91.9366 471.192 93.5286 469.281 96.9557C467.371 100.383 467.937 104.347 470.547 105.811C473.156 107.274 476.821 105.682 478.731 102.255Z" fill="#3F3D56"/>
<path d="M482.961 94.6721C484.871 91.2449 484.304 87.2803 481.695 85.8169C479.085 84.3536 475.421 85.9455 473.511 89.3727C471.6 92.7999 472.167 96.7644 474.777 98.2278C477.386 99.6912 481.05 98.0992 482.961 94.6721Z" fill="#3F3D56"/>
<path d="M524.831 50.0297C525.936 49.5668 527.008 49.0292 528.04 48.4206L516.764 39.4085L530.128 47.0392C532.983 44.9499 535.383 42.2986 537.181 39.2473C538.979 36.1961 540.138 32.8091 540.587 29.2933L517.344 28.5646L540.788 25.6348C540.761 22.0477 539.994 18.505 538.536 15.2294C537.078 11.9538 534.96 9.01606 532.316 6.60073C529.672 4.1854 526.558 2.34471 523.17 1.19431C519.783 0.0439055 516.195 -0.391341 512.631 -0.0840841C509.068 0.223172 505.606 1.26629 502.464 2.97973C499.322 4.69317 496.567 7.03989 494.373 9.87246C492.178 12.705 490.592 15.9622 489.712 19.4393C488.833 22.9165 488.68 26.5384 489.264 30.0776C487.543 30.797 485.904 31.6995 484.375 32.7696L495.822 50.2068L481.863 34.7835C478.66 37.6841 476.23 41.34 474.791 45.4203C473.353 49.5006 472.952 53.8763 473.624 58.1513C469.133 60.0284 465.258 63.1352 462.444 67.1167C459.629 71.0981 457.989 75.7935 457.709 80.666C457.43 85.5386 458.523 90.3917 460.864 94.6705C463.204 98.9494 466.698 102.481 470.945 104.863C475.193 107.244 480.023 108.379 484.883 108.137C489.743 107.895 494.437 106.287 498.428 103.495C502.42 100.704 505.548 96.8425 507.455 92.3522C509.362 87.862 509.971 82.9242 509.212 78.1034C514.58 75.861 519.041 71.8737 521.877 66.7822C524.713 61.6906 525.761 55.7904 524.851 50.0297H524.831Z" fill="#6C63FF"/>
<path opacity="0.1" d="M476.581 41.3972C473.746 46.4898 472.704 52.3921 473.624 58.1513C469.133 60.0284 465.258 63.1353 462.444 67.1167C459.629 71.0982 457.989 75.7935 457.709 80.6661C457.43 85.5386 458.523 90.3917 460.864 94.6706C463.204 98.9494 466.698 102.481 470.945 104.863C475.193 107.244 480.023 108.379 484.883 108.137C489.743 107.895 494.437 106.287 498.428 103.495C502.42 100.704 505.548 96.8425 507.455 92.3523C509.362 87.8621 509.971 82.9243 509.212 78.1034C514.373 75.9427 478.003 38.8671 476.581 41.3972Z" fill="black"/>
<path d="M510.246 319.685H516.356C519.701 319.685 522.909 321.017 525.274 323.39C527.639 325.762 528.968 328.98 528.968 332.335V351.113H497.634V332.335C497.634 328.98 498.962 325.762 501.328 323.39C503.693 321.017 506.901 319.685 510.246 319.685Z" fill="#3F3D56"/>
<path opacity="0.1" d="M510.246 319.685H516.356C519.701 319.685 522.909 321.017 525.274 323.39C527.639 325.762 528.968 328.98 528.968 332.335V351.113H497.634V332.335C497.634 328.98 498.962 325.762 501.328 323.39C503.693 321.017 506.901 319.685 510.246 319.685Z" fill="black"/>
<path d="M512.052 326.601C513.437 326.601 514.56 325.475 514.56 324.086C514.56 322.697 513.437 321.571 512.052 321.571C510.668 321.571 509.545 322.697 509.545 324.086C509.545 325.475 510.668 326.601 512.052 326.601Z" fill="#3F3D56"/>
<path d="M512.052 323.458C513.437 323.458 514.56 322.333 514.56 320.944C514.56 319.555 513.437 318.429 512.052 318.429C510.668 318.429 509.545 319.555 509.545 320.944C509.545 322.333 510.668 323.458 512.052 323.458Z" fill="#3F3D56"/>
<path d="M512.052 320.312C513.437 320.312 514.56 319.186 514.56 317.797C514.56 316.408 513.437 315.282 512.052 315.282C510.668 315.282 509.545 316.408 509.545 317.797C509.545 319.186 510.668 320.312 512.052 320.312Z" fill="#3F3D56"/>
<path d="M512.052 317.169C513.437 317.169 514.56 316.043 514.56 314.655C514.56 313.266 513.437 312.14 512.052 312.14C510.668 312.14 509.545 313.266 509.545 314.655C509.545 316.043 510.668 317.169 512.052 317.169Z" fill="#3F3D56"/>
<path d="M512.052 314.027C513.437 314.027 514.56 312.901 514.56 311.512C514.56 310.123 513.437 308.997 512.052 308.997C510.668 308.997 509.545 310.123 509.545 311.512C509.545 312.901 510.668 314.027 512.052 314.027Z" fill="#3F3D56"/>
<path d="M512.052 310.884C513.437 310.884 514.56 309.758 514.56 308.369C514.56 306.98 513.437 305.854 512.052 305.854C510.668 305.854 509.545 306.98 509.545 308.369C509.545 309.758 510.668 310.884 512.052 310.884Z" fill="#3F3D56"/>
<path d="M512.052 307.742C513.437 307.742 514.56 306.616 514.56 305.227C514.56 303.838 513.437 302.712 512.052 302.712C510.668 302.712 509.545 303.838 509.545 305.227C509.545 306.616 510.668 307.742 512.052 307.742Z" fill="#3F3D56"/>
<path d="M515.811 308.998C517.195 308.998 518.318 307.872 518.318 306.483C518.318 305.094 517.195 303.968 515.811 303.968C514.426 303.968 513.303 305.094 513.303 306.483C513.303 307.872 514.426 308.998 515.811 308.998Z" fill="#3F3D56"/>
<path d="M518.318 307.742C519.703 307.742 520.826 306.616 520.826 305.227C520.826 303.838 519.703 302.712 518.318 302.712C516.933 302.712 515.811 303.838 515.811 305.227C515.811 306.616 516.933 307.742 518.318 307.742Z" fill="#3F3D56"/>
<path d="M520.825 306.482C522.21 306.482 523.333 305.356 523.333 303.967C523.333 302.578 522.21 301.452 520.825 301.452C519.441 301.452 518.318 302.578 518.318 303.967C518.318 305.356 519.441 306.482 520.825 306.482Z" fill="#3F3D56"/>
<path d="M512.052 304.6C513.437 304.6 514.56 303.474 514.56 302.085C514.56 300.696 513.437 299.57 512.052 299.57C510.668 299.57 509.545 300.696 509.545 302.085C509.545 303.474 510.668 304.6 512.052 304.6Z" fill="#3F3D56"/>
<path d="M512.052 301.458C513.437 301.458 514.56 300.332 514.56 298.943C514.56 297.554 513.437 296.428 512.052 296.428C510.668 296.428 509.545 297.554 509.545 298.943C509.545 300.332 510.668 301.458 512.052 301.458Z" fill="#3F3D56"/>
<path d="M512.052 298.31C513.437 298.31 514.56 297.184 514.56 295.795C514.56 294.406 513.437 293.28 512.052 293.28C510.668 293.28 509.545 294.406 509.545 295.795C509.545 297.184 510.668 298.31 512.052 298.31Z" fill="#3F3D56"/>
<path d="M512.052 295.167C513.437 295.167 514.56 294.042 514.56 292.653C514.56 291.264 513.437 290.138 512.052 290.138C510.668 290.138 509.545 291.264 509.545 292.653C509.545 294.042 510.668 295.167 512.052 295.167Z" fill="#3F3D56"/>
<path d="M522.445 284.546C521.823 284.637 521.197 284.703 520.568 284.743C521.15 284.234 521.69 283.679 522.183 283.084C521.835 282.027 521.324 281.031 520.669 280.134C520.047 280.484 519.36 280.703 518.651 280.776C518.031 280.867 517.405 280.933 516.779 280.974C517.621 280.173 518.421 279.328 519.176 278.444C517.367 276.8 515.05 275.829 512.613 275.694C510.176 275.559 507.767 276.269 505.789 277.703C503.811 279.138 502.385 281.211 501.749 283.575C501.114 285.938 501.307 288.449 502.298 290.687C503.288 292.924 505.015 294.753 507.189 295.865C509.364 296.978 511.853 297.307 514.241 296.798C516.628 296.289 518.769 294.972 520.304 293.069C521.839 291.165 522.675 288.791 522.672 286.342C522.672 285.727 522.618 285.112 522.511 284.506L522.445 284.546Z" fill="#6C63FF"/>
<path d="M530.82 297.04C530.18 297.434 529.458 297.676 528.711 297.748C528.09 297.839 527.465 297.905 526.839 297.945C527.504 297.347 528.124 296.701 528.696 296.012C528.172 295.874 527.633 295.803 527.091 295.8C525.599 295.797 524.155 296.328 523.018 297.296C521.88 298.265 521.124 299.608 520.885 301.086C520.646 302.563 520.939 304.077 521.712 305.357C522.486 306.637 523.688 307.599 525.105 308.07C526.521 308.541 528.058 308.49 529.441 307.927C530.823 307.364 531.961 306.325 532.649 304.997C533.337 303.669 533.53 302.139 533.195 300.681C532.86 299.222 532.018 297.931 530.82 297.04Z" fill="#6C63FF"/>
<path d="M508.289 308.998C509.673 308.998 510.796 307.872 510.796 306.483C510.796 305.094 509.673 303.968 508.289 303.968C506.904 303.968 505.781 305.094 505.781 306.483C505.781 307.872 506.904 308.998 508.289 308.998Z" fill="#3F3D56"/>
<path d="M505.781 307.742C507.166 307.742 508.289 306.616 508.289 305.227C508.289 303.838 507.166 302.712 505.781 302.712C504.396 302.712 503.274 303.838 503.274 305.227C503.274 306.616 504.396 307.742 505.781 307.742Z" fill="#3F3D56"/>
<path d="M503.279 306.482C504.664 306.482 505.786 305.356 505.786 303.967C505.786 302.578 504.664 301.452 503.279 301.452C501.894 301.452 500.771 302.578 500.771 303.967C500.771 305.356 501.894 306.482 503.279 306.482Z" fill="#3F3D56"/>
<path d="M493.3 297.04C493.94 297.434 494.661 297.676 495.409 297.748C496.029 297.839 496.655 297.905 497.28 297.945C496.616 297.347 495.995 296.701 495.424 296.012C495.948 295.874 496.487 295.803 497.028 295.8C498.52 295.797 499.965 296.328 501.102 297.296C502.239 298.265 502.996 299.608 503.235 301.086C503.474 302.563 503.18 304.077 502.407 305.357C501.634 306.637 500.431 307.599 499.015 308.07C497.599 308.541 496.061 308.49 494.679 307.927C493.296 307.364 492.159 306.325 491.471 304.997C490.783 303.669 490.589 302.139 490.924 300.681C491.26 299.222 492.102 297.931 493.3 297.04Z" fill="#6C63FF"/>
<path d="M510.246 321.571H516.356C519.701 321.571 522.909 322.904 525.274 325.276C527.639 327.649 528.968 330.867 528.968 334.222V350.854C528.968 351.423 528.743 351.969 528.342 352.371C527.94 352.774 527.396 353 526.829 353H499.773C499.205 353 498.661 352.774 498.26 352.371C497.859 351.969 497.634 351.423 497.634 350.854V334.222C497.634 330.867 498.962 327.649 501.328 325.276C503.693 322.904 506.901 321.571 510.246 321.571Z" fill="#3F3D56"/>
<g opacity="0.1">
<path opacity="0.1" d="M522.637 285.234C522.384 285.509 522.112 285.766 521.824 286.004C522.112 286.004 522.4 285.958 522.682 285.928C522.672 285.695 522.662 285.462 522.637 285.234Z" fill="black"/>
<path opacity="0.1" d="M518.066 282.229C518.691 282.188 519.317 282.122 519.938 282.031C520.499 281.962 521.048 281.812 521.567 281.586C521.311 281.081 521.017 280.595 520.689 280.134C520.376 280.325 520.036 280.47 519.68 280.564C519.186 281.16 518.646 281.717 518.066 282.229Z" fill="black"/>
<path opacity="0.1" d="M502.648 287.628C502.645 285.709 503.157 283.825 504.131 282.174C505.105 280.523 506.505 279.166 508.183 278.246C509.862 277.326 511.757 276.878 513.668 276.947C515.58 277.016 517.437 277.602 519.045 278.641L519.206 278.469C518.157 277.533 516.933 276.814 515.606 276.354C514.278 275.894 512.873 275.702 511.471 275.789C510.07 275.876 508.699 276.241 507.438 276.862C506.178 277.482 505.052 278.347 504.126 279.407C503.2 280.466 502.492 281.698 502.043 283.033C501.595 284.368 501.413 285.779 501.511 287.184C501.608 288.589 501.981 289.961 502.609 291.221C503.238 292.481 504.108 293.604 505.171 294.525C503.539 292.6 502.645 290.154 502.648 287.628Z" fill="black"/>
</g>
<g opacity="0.1">
<path opacity="0.1" d="M526.839 299.205C527.465 299.16 528.09 299.094 528.711 299.003C529.458 298.933 530.179 298.692 530.82 298.3C531.529 298.822 532.12 299.489 532.555 300.256C532.99 301.023 533.258 301.874 533.342 302.753C533.367 302.531 533.378 302.308 533.377 302.085C533.382 301.102 533.156 300.132 532.718 299.253C532.279 298.374 531.641 297.611 530.855 297.024C530.215 297.418 529.494 297.661 528.746 297.733L528.242 297.794C527.812 298.301 527.343 298.773 526.839 299.205Z" fill="black"/>
<path opacity="0.1" d="M527.101 297.055C527.313 297.055 527.52 297.055 527.727 297.1C528.055 296.751 528.378 296.377 528.706 296.012C528.182 295.874 527.643 295.803 527.101 295.8C525.44 295.8 523.846 296.462 522.671 297.641C521.496 298.819 520.835 300.418 520.835 302.084C520.835 302.297 520.835 302.51 520.866 302.712C521.022 301.162 521.746 299.725 522.898 298.68C524.05 297.635 525.548 297.056 527.101 297.055Z" fill="black"/>
</g>
<g opacity="0.1">
<path opacity="0.1" d="M497.26 299.205C496.635 299.16 496.009 299.094 495.389 299.003C494.641 298.933 493.92 298.692 493.28 298.3C492.571 298.822 491.979 299.489 491.545 300.256C491.11 301.023 490.842 301.874 490.757 302.753C490.733 302.531 490.721 302.308 490.722 302.085C490.718 301.102 490.944 300.132 491.382 299.253C491.82 298.374 492.458 297.611 493.244 297.024C493.885 297.418 494.606 297.661 495.353 297.733L495.858 297.794C496.288 298.3 496.757 298.772 497.26 299.205Z" fill="black"/>
<path opacity="0.1" d="M497.008 297.055C496.796 297.055 496.589 297.055 496.383 297.1C496.055 296.751 495.732 296.377 495.404 296.012C495.928 295.874 496.467 295.803 497.008 295.8C498.67 295.8 500.264 296.462 501.439 297.641C502.614 298.819 503.274 300.418 503.274 302.084C503.274 302.297 503.274 302.51 503.244 302.712C503.088 301.162 502.363 299.725 501.211 298.68C500.059 297.635 498.562 297.056 497.008 297.055Z" fill="black"/>
</g>
<path d="M28.7565 272.741H76.9565C80.3015 272.741 83.5095 274.074 85.8748 276.446C88.2401 278.819 89.5689 282.036 89.5689 285.392V346.361H16.144V285.392C16.144 282.036 17.4729 278.819 19.8382 276.446C22.2035 274.074 25.4115 272.741 28.7565 272.741Z" fill="#3F3D56"/>
<path opacity="0.1" d="M28.7565 272.741H76.9565C80.3015 272.741 83.5095 274.074 85.8748 276.446C88.2401 278.819 89.5689 282.036 89.5689 285.392V346.361H16.144V285.392C16.144 282.036 17.4729 278.819 19.8382 276.446C22.2035 274.074 25.4115 272.741 28.7565 272.741Z" fill="black"/>
<path d="M49.9305 288.919C53.1737 288.919 55.8029 286.282 55.8029 283.029C55.8029 279.776 53.1737 277.139 49.9305 277.139C46.6873 277.139 44.0581 279.776 44.0581 283.029C44.0581 286.282 46.6873 288.919 49.9305 288.919Z" fill="#3F3D56"/>
<path d="M49.9305 281.556C53.1737 281.556 55.8029 278.919 55.8029 275.666C55.8029 272.413 53.1737 269.776 49.9305 269.776C46.6873 269.776 44.0581 272.413 44.0581 275.666C44.0581 278.919 46.6873 281.556 49.9305 281.556Z" fill="#3F3D56"/>
<path d="M49.9305 274.188C53.1737 274.188 55.8029 271.551 55.8029 268.298C55.8029 265.045 53.1737 262.408 49.9305 262.408C46.6873 262.408 44.0581 265.045 44.0581 268.298C44.0581 271.551 46.6873 274.188 49.9305 274.188Z" fill="#3F3D56"/>
<path d="M49.9305 266.826C53.1737 266.826 55.8029 264.189 55.8029 260.936C55.8029 257.683 53.1737 255.046 49.9305 255.046C46.6873 255.046 44.0581 257.683 44.0581 260.936C44.0581 264.189 46.6873 266.826 49.9305 266.826Z" fill="#3F3D56"/>
<path d="M49.9305 259.459C53.1737 259.459 55.8029 256.822 55.8029 253.569C55.8029 250.316 53.1737 247.679 49.9305 247.679C46.6873 247.679 44.0581 250.316 44.0581 253.569C44.0581 256.822 46.6873 259.459 49.9305 259.459Z" fill="#3F3D56"/>
<path d="M49.9305 252.095C53.1737 252.095 55.8029 249.458 55.8029 246.205C55.8029 242.952 53.1737 240.315 49.9305 240.315C46.6873 240.315 44.0581 242.952 44.0581 246.205C44.0581 249.458 46.6873 252.095 49.9305 252.095Z" fill="#3F3D56"/>
<path d="M49.9305 244.733C53.1737 244.733 55.8029 242.096 55.8029 238.843C55.8029 235.59 53.1737 232.953 49.9305 232.953C46.6873 232.953 44.0581 235.59 44.0581 238.843C44.0581 242.096 46.6873 244.733 49.9305 244.733Z" fill="#3F3D56"/>
<path d="M58.7388 247.678C61.9821 247.678 64.6112 245.041 64.6112 241.788C64.6112 238.535 61.9821 235.898 58.7388 235.898C55.4956 235.898 52.8665 238.535 52.8665 241.788C52.8665 245.041 55.4956 247.678 58.7388 247.678Z" fill="#3F3D56"/>
<path d="M64.6114 244.733C67.8546 244.733 70.4838 242.096 70.4838 238.843C70.4838 235.59 67.8546 232.953 64.6114 232.953C61.3682 232.953 58.739 235.59 58.739 238.843C58.739 242.096 61.3682 244.733 64.6114 244.733Z" fill="#3F3D56"/>
<path d="M70.4888 241.783C73.732 241.783 76.3612 239.146 76.3612 235.893C76.3612 232.64 73.732 230.003 70.4888 230.003C67.2456 230.003 64.6165 232.64 64.6165 235.893C64.6165 239.146 67.2456 241.783 70.4888 241.783Z" fill="#3F3D56"/>
<path d="M49.9305 237.366C53.1737 237.366 55.8029 234.729 55.8029 231.476C55.8029 228.223 53.1737 225.586 49.9305 225.586C46.6873 225.586 44.0581 228.223 44.0581 231.476C44.0581 234.729 46.6873 237.366 49.9305 237.366Z" fill="#3F3D56"/>
<path d="M49.9305 230.004C53.1737 230.004 55.8029 227.367 55.8029 224.114C55.8029 220.861 53.1737 218.224 49.9305 218.224C46.6873 218.224 44.0581 220.861 44.0581 224.114C44.0581 227.367 46.6873 230.004 49.9305 230.004Z" fill="#3F3D56"/>
<path d="M49.9305 222.635C53.1737 222.635 55.8029 219.998 55.8029 216.745C55.8029 213.493 53.1737 210.855 49.9305 210.855C46.6873 210.855 44.0581 213.493 44.0581 216.745C44.0581 219.998 46.6873 222.635 49.9305 222.635Z" fill="#3F3D56"/>
<path d="M49.9305 215.273C53.1737 215.273 55.8029 212.636 55.8029 209.383C55.8029 206.13 53.1737 203.493 49.9305 203.493C46.6873 203.493 44.0581 206.13 44.0581 209.383C44.0581 212.636 46.6873 215.273 49.9305 215.273Z" fill="#3F3D56"/>
<path d="M74.2824 190.383C72.8261 190.595 71.3631 190.751 69.8933 190.848C71.2535 189.654 72.517 188.352 73.672 186.957C72.8708 184.484 71.6895 182.152 70.1708 180.045C68.7256 180.873 67.1243 181.39 65.4688 181.563C64.0159 181.776 62.5478 181.932 61.0797 182.034C63.0119 180.465 64.8029 178.092 66.6948 176.164C62.3088 172.169 56.6515 169.864 50.7301 169.661C44.8088 169.458 39.0077 171.369 34.3598 175.055C29.7119 178.74 26.5188 183.96 25.3491 189.786C24.1794 195.611 25.109 201.664 27.9724 206.867C30.8358 212.069 35.4471 216.084 40.9852 218.195C46.5234 220.307 52.629 220.379 58.2149 218.398C63.8008 216.417 68.5045 212.511 71.4885 207.378C74.4724 202.244 75.5429 196.214 74.5095 190.363L74.2824 190.383Z" fill="#6C63FF"/>
<path d="M93.9075 219.66C92.5252 220.637 90.6888 221.057 88.9685 221.31C87.5105 221.528 86.0474 221.679 84.5793 221.781C86.0928 220.561 87.4852 218.861 88.9281 217.257C85.3931 216.316 81.6352 216.731 78.389 218.421C75.1427 220.11 72.6413 222.954 71.3735 226.395C70.1058 229.835 70.1628 233.627 71.5334 237.028C72.9041 240.429 75.4899 243.195 78.7855 244.786C82.0811 246.377 85.8497 246.678 89.3549 245.63C92.86 244.583 95.8497 242.262 97.7399 239.122C99.63 235.981 100.285 232.246 99.576 228.648C98.8673 225.049 96.8462 221.844 93.9075 219.66Z" fill="#6C63FF"/>
<path d="M41.1168 247.678C44.36 247.678 46.9891 245.041 46.9891 241.788C46.9891 238.535 44.36 235.898 41.1168 235.898C37.8735 235.898 35.2444 238.535 35.2444 241.788C35.2444 245.041 37.8735 247.678 41.1168 247.678Z" fill="#3F3D56"/>
<path d="M35.2444 244.733C38.4877 244.733 41.1168 242.096 41.1168 238.843C41.1168 235.59 38.4877 232.953 35.2444 232.953C32.0012 232.953 29.3721 235.59 29.3721 238.843C29.3721 242.096 32.0012 244.733 35.2444 244.733Z" fill="#3F3D56"/>
<path d="M29.3719 241.783C32.6151 241.783 35.2443 239.146 35.2443 235.893C35.2443 232.64 32.6151 230.003 29.3719 230.003C26.1287 230.003 23.4995 232.64 23.4995 235.893C23.4995 239.146 26.1287 241.783 29.3719 241.783Z" fill="#3F3D56"/>
<path d="M5.9532 219.66C7.33553 220.637 9.1719 221.057 10.8973 221.31C12.3503 221.528 13.8133 221.679 15.2814 221.781C13.7679 220.561 12.3755 218.861 10.9326 217.257C14.4676 216.316 18.2255 216.731 21.4717 218.421C24.718 220.11 27.2194 222.954 28.4872 226.395C29.7549 229.835 29.6979 233.627 28.3273 237.028C26.9566 240.429 24.3708 243.195 21.0752 244.786C17.7796 246.377 14.011 246.678 10.5059 245.63C7.00072 244.583 4.01096 242.262 2.12082 239.122C0.230673 235.981 -0.424018 232.246 0.284683 228.648C0.993383 225.049 3.01454 221.844 5.9532 219.66Z" fill="#6C63FF"/>
<path d="M28.7565 277.139H76.9565C80.3015 277.139 83.5095 278.471 85.8748 280.844C88.2401 283.216 89.5689 286.434 89.5689 289.789V348.643C89.5689 349.212 89.3436 349.758 88.9424 350.16C88.5413 350.563 87.9972 350.789 87.4299 350.789H18.2932C18.0115 350.79 17.7322 350.736 17.4715 350.629C17.2108 350.521 16.9738 350.363 16.7741 350.164C16.5744 349.965 16.416 349.728 16.3078 349.467C16.1997 349.206 16.144 348.926 16.144 348.643V289.789C16.144 286.434 17.4729 283.216 19.8382 280.844C22.2035 278.471 25.4115 277.139 28.7565 277.139Z" fill="#3F3D56"/>
<g opacity="0.1">
<path opacity="0.1" d="M74.7265 191.991C74.1362 192.635 73.5024 193.237 72.8296 193.793C73.5006 193.747 74.1766 193.686 74.8476 193.621C74.8224 193.074 74.7871 192.528 74.7265 191.991Z" fill="black"/>
<path opacity="0.1" d="M64.021 184.958C65.4891 184.856 66.9521 184.705 68.4051 184.487C69.7212 184.333 71.0088 183.992 72.2292 183.475C71.6326 182.286 70.9444 181.146 70.1708 180.064C69.4414 180.517 68.6491 180.858 67.8199 181.076C66.6558 182.467 65.3857 183.765 64.021 184.958Z" fill="black"/>
<path opacity="0.1" d="M27.8989 197.603C27.89 193.108 29.09 188.694 31.3724 184.826C33.6549 180.957 36.9353 177.778 40.8681 175.622C44.8009 173.467 49.2404 172.415 53.7191 172.578C58.1978 172.741 62.5497 174.113 66.3165 176.548C66.4426 176.416 66.5688 176.27 66.6949 176.143C64.241 173.92 61.3708 172.208 58.2512 171.107C55.1315 170.006 51.8249 169.539 48.5235 169.732C45.2221 169.925 41.9919 170.774 39.0208 172.231C36.0497 173.687 33.3971 175.722 31.2173 178.216C29.0375 180.711 27.374 183.615 26.3235 186.76C25.2731 189.905 24.8567 193.229 25.0985 196.537C25.3404 199.845 26.2358 203.071 27.7325 206.029C29.2291 208.987 31.2973 211.617 33.8166 213.765C29.9908 209.255 27.8927 203.525 27.8989 197.603Z" fill="black"/>
</g>
<g opacity="0.1">
<path opacity="0.1" d="M84.5793 224.725C86.0458 224.631 87.5088 224.474 88.9685 224.255C90.6888 224.007 92.5 223.587 93.9076 222.605C95.563 223.832 96.9424 225.395 97.9559 227.191C98.9694 228.988 99.5943 230.979 99.79 233.034C99.8405 232.528 99.8707 232.022 99.8707 231.481C99.8722 229.181 99.3347 226.913 98.3015 224.859C97.2683 222.806 95.7683 221.025 93.9227 219.66C92.5404 220.637 90.704 221.057 88.9836 221.31C88.5952 221.365 88.2117 221.411 87.8283 221.457C86.8332 222.631 85.7468 223.724 84.5793 224.725Z" fill="black"/>
<path opacity="0.1" d="M85.1596 219.696C85.652 219.704 86.1438 219.737 86.6327 219.797C87.3995 218.977 88.1462 218.107 88.9181 217.267C86.7449 216.679 84.4659 216.602 82.2582 217.042C80.0506 217.482 77.9739 218.427 76.1897 219.803C74.4056 221.179 72.9621 222.95 71.9715 224.977C70.981 227.004 70.4701 229.233 70.4786 231.491C70.4786 231.997 70.5038 232.503 70.5493 232.963C70.9108 229.328 72.6061 225.958 75.3059 223.506C78.0058 221.055 81.5176 219.696 85.1596 219.696Z" fill="black"/>
</g>
<g opacity="0.1">
<path opacity="0.1" d="M15.2763 224.725C13.8098 224.631 12.3485 224.474 10.8922 224.255C9.16676 224.007 7.33038 223.587 5.94805 222.605C4.29538 223.833 2.91889 225.397 1.90803 227.193C0.897177 228.99 0.274585 230.98 0.080721 233.034C0.030271 232.528 1.11812e-06 232.022 1.11812e-06 231.481C-0.000895469 229.18 0.537428 226.912 1.57153 224.859C2.60562 222.805 4.10653 221.025 5.9531 219.66C7.33543 220.637 9.17181 221.057 10.8972 221.31C11.2806 221.365 11.664 221.411 12.0475 221.457C13.0375 222.629 14.117 223.721 15.2763 224.725Z" fill="black"/>
<path opacity="0.1" d="M14.686 219.696C14.1935 219.704 13.7018 219.737 13.2129 219.797C12.446 218.977 11.6994 218.107 10.9275 217.267C13.1007 216.679 15.3797 216.602 17.5874 217.042C19.795 217.482 21.8717 218.427 23.6559 219.803C25.44 221.179 26.8835 222.95 27.8741 224.977C28.8646 227.004 29.3755 229.233 29.367 231.491C29.367 231.997 29.367 232.503 29.2963 232.963C28.9348 229.328 27.2395 225.958 24.5397 223.506C21.8398 221.055 18.328 219.696 14.686 219.696Z" fill="black"/>
</g>
<path d="M343.05 352.256L244.672 350.991L244.96 348.461L249.717 306.715H336.113L342.47 348.461L342.954 351.624L343.05 352.256Z" fill="#D0D2D5"/>
<path opacity="0.1" d="M342.954 351.624H293.861L244.672 350.991L244.96 348.461H342.47L342.954 351.624Z" fill="black"/>
<path d="M358.815 349.094H228.276V352.256H358.815V349.094Z" fill="#D0D2D5"/>
<path d="M483.361 55.9756C483.372 53.7917 482.518 51.6928 480.986 50.1405C479.454 48.5881 477.371 47.7093 475.193 47.6973H110.637C109.558 47.7026 108.491 47.9209 107.497 48.3398C106.502 48.7587 105.6 49.37 104.841 50.1387C104.082 50.9074 103.482 51.8185 103.074 52.82C102.666 53.8215 102.459 54.8938 102.464 55.9756V277.609H483.361V55.9756Z" fill="#444053"/>
<path d="M102.464 275.403V301.367C102.461 302.445 102.67 303.514 103.079 304.511C103.488 305.508 104.09 306.414 104.849 307.178C105.608 307.941 106.511 308.547 107.504 308.96C108.497 309.373 109.562 309.585 110.637 309.585H475.193C477.36 309.585 479.437 308.721 480.969 307.185C482.501 305.649 483.361 303.565 483.361 301.392V275.403H102.464Z" fill="#D0D2D5"/>
<path opacity="0.1" d="M469.487 61.6123H118.229V260.855H469.487V61.6123Z" fill="#6C63FF"/>
<path d="M294.805 299.711C296.094 299.712 297.368 299.419 298.528 298.855C299.689 298.29 300.706 297.469 301.504 296.453C301.745 296.142 301.966 295.815 302.165 295.476L297.494 294.707L302.539 294.742C303.025 293.685 303.29 292.54 303.318 291.376C303.346 290.213 303.135 289.056 302.7 287.977L295.925 291.519L302.175 286.914C301.602 285.882 300.82 284.98 299.881 284.266C298.941 283.552 297.865 283.041 296.718 282.767C295.572 282.492 294.381 282.459 293.221 282.67C292.062 282.881 290.958 283.332 289.981 283.993C289.004 284.654 288.175 285.511 287.545 286.511C286.916 287.51 286.5 288.63 286.325 289.799C286.149 290.968 286.218 292.161 286.526 293.302C286.834 294.443 287.375 295.507 288.115 296.427C288.909 297.447 289.924 298.273 291.083 298.842C292.241 299.411 293.514 299.708 294.805 299.711Z" fill="#6C63FF"/>
<path opacity="0.1" d="M303.32 309.559L342.565 349.093L336.547 309.559H303.32Z" fill="black"/>
<path d="M399.176 88.7441H128.007V233.165H399.176V88.7441Z" fill="white"/>
<path opacity="0.1" d="M218.766 126.392H143.132V130.323H218.766V126.392Z" fill="#6C63FF"/>
<path opacity="0.1" d="M157.142 105.6H149.857V126.392H157.142V105.6Z" fill="#6C63FF"/>
<path opacity="0.1" d="M167.786 105.6H160.501V126.392H167.786V105.6Z" fill="#6C63FF"/>
<path opacity="0.1" d="M178.431 105.6H171.146V126.392H178.431V105.6Z" fill="#6C63FF"/>
<path opacity="0.1" d="M189.076 105.6H181.792V126.392H189.076V105.6Z" fill="#6C63FF"/>
<path opacity="0.1" d="M199.722 105.6H192.437V126.392H199.722V105.6Z" fill="#6C63FF"/>
<path opacity="0.1" d="M210.366 105.6H203.081V126.392H210.366V105.6Z" fill="#6C63FF"/>
<path opacity="0.1" d="M157.142 109.537H149.857V111.784H157.142V109.537Z" fill="#6C63FF"/>
<path opacity="0.1" d="M167.786 109.537H160.501V111.784H167.786V109.537Z" fill="#6C63FF"/>
<path opacity="0.1" d="M178.431 109.537H171.146V111.784H178.431V109.537Z" fill="#6C63FF"/>
<path opacity="0.1" d="M189.076 109.537H181.792V111.784H189.076V109.537Z" fill="#6C63FF"/>
<path opacity="0.1" d="M199.722 109.537H192.437V111.784H199.722V109.537Z" fill="#6C63FF"/>
<path opacity="0.1" d="M210.366 109.537H203.081V111.784H210.366V109.537Z" fill="#6C63FF"/>
<path opacity="0.1" d="M157.142 119.652H149.857V121.899H157.142V119.652Z" fill="#6C63FF"/>
<path opacity="0.1" d="M167.786 119.652H160.501V121.899H167.786V119.652Z" fill="#6C63FF"/>
<path opacity="0.1" d="M178.431 119.652H171.146V121.899H178.431V119.652Z" fill="#6C63FF"/>
<path opacity="0.1" d="M189.076 119.652H181.792V121.899H189.076V119.652Z" fill="#6C63FF"/>
<path opacity="0.1" d="M199.722 119.652H192.437V121.899H199.722V119.652Z" fill="#6C63FF"/>
<path opacity="0.1" d="M210.366 119.652H203.081V121.899H210.366V119.652Z" fill="#6C63FF"/>
<path opacity="0.1" d="M384.605 136.507H308.971V140.439H384.605V136.507Z" fill="#6C63FF"/>
<path opacity="0.1" d="M322.981 115.715H315.696V136.507H322.981V115.715Z" fill="#6C63FF"/>
<path opacity="0.1" d="M333.626 115.715H326.341V136.507H333.626V115.715Z" fill="#6C63FF"/>
<path opacity="0.1" d="M344.271 115.715H336.986V136.507H344.271V115.715Z" fill="#6C63FF"/>
<path opacity="0.1" d="M354.916 115.715H347.631V136.507H354.916V115.715Z" fill="#6C63FF"/>
<path opacity="0.1" d="M365.561 115.715H358.276V136.507H365.561V115.715Z" fill="#6C63FF"/>
<path opacity="0.1" d="M376.206 115.715H368.921V136.507H376.206V115.715Z" fill="#6C63FF"/>
<path opacity="0.1" d="M322.981 119.652H315.696V121.899H322.981V119.652Z" fill="#6C63FF"/>
<path opacity="0.1" d="M333.626 119.652H326.341V121.899H333.626V119.652Z" fill="#6C63FF"/>
<path opacity="0.1" d="M344.271 119.652H336.986V121.899H344.271V119.652Z" fill="#6C63FF"/>
<path opacity="0.1" d="M354.916 119.652H347.631V121.899H354.916V119.652Z" fill="#6C63FF"/>
<path opacity="0.1" d="M365.561 119.652H358.276V121.899H365.561V119.652Z" fill="#6C63FF"/>
<path opacity="0.1" d="M376.206 119.652H368.921V121.899H376.206V119.652Z" fill="#6C63FF"/>
<path opacity="0.1" d="M322.981 129.768H315.696V132.014H322.981V129.768Z" fill="#6C63FF"/>
<path opacity="0.1" d="M333.626 129.768H326.341V132.014H333.626V129.768Z" fill="#6C63FF"/>
<path opacity="0.1" d="M344.271 129.768H336.986V132.014H344.271V129.768Z" fill="#6C63FF"/>
<path opacity="0.1" d="M354.916 129.768H347.631V132.014H354.916V129.768Z" fill="#6C63FF"/>
<path opacity="0.1" d="M365.561 129.768H358.276V132.014H365.561V129.768Z" fill="#6C63FF"/>
<path opacity="0.1" d="M376.206 129.768H368.921V132.014H376.206V129.768Z" fill="#6C63FF"/>
<path opacity="0.1" d="M384.605 165.168H308.971V169.1H384.605V165.168Z" fill="#6C63FF"/>
<path opacity="0.1" d="M322.981 144.376H315.696V165.168H322.981V144.376Z" fill="#6C63FF"/>
<path opacity="0.1" d="M333.626 144.376H326.341V165.168H333.626V144.376Z" fill="#6C63FF"/>
<path opacity="0.1" d="M344.271 144.376H336.986V165.168H344.271V144.376Z" fill="#6C63FF"/>
<path opacity="0.1" d="M354.916 144.376H347.631V165.168H354.916V144.376Z" fill="#6C63FF"/>
<path opacity="0.1" d="M365.561 144.376H358.276V165.168H365.561V144.376Z" fill="#6C63FF"/>
<path opacity="0.1" d="M376.206 144.376H368.921V165.168H376.206V144.376Z" fill="#6C63FF"/>
<path opacity="0.1" d="M322.981 148.308H315.696V150.554H322.981V148.308Z" fill="#6C63FF"/>
<path opacity="0.1" d="M333.626 148.308H326.341V150.554H333.626V148.308Z" fill="#6C63FF"/>
<path opacity="0.1" d="M344.271 148.308H336.986V150.554H344.271V148.308Z" fill="#6C63FF"/>
<path opacity="0.1" d="M354.916 148.308H347.631V150.554H354.916V148.308Z" fill="#6C63FF"/>
<path opacity="0.1" d="M365.561 148.308H358.276V150.554H365.561V148.308Z" fill="#6C63FF"/>
<path opacity="0.1" d="M376.206 148.308H368.921V150.554H376.206V148.308Z" fill="#6C63FF"/>
<path opacity="0.1" d="M322.981 158.423H315.696V160.67H322.981V158.423Z" fill="#6C63FF"/>
<path opacity="0.1" d="M333.626 158.423H326.341V160.67H333.626V158.423Z" fill="#6C63FF"/>
<path opacity="0.1" d="M344.271 158.423H336.986V160.67H344.271V158.423Z" fill="#6C63FF"/>
<path opacity="0.1" d="M354.916 158.423H347.631V160.67H354.916V158.423Z" fill="#6C63FF"/>
<path opacity="0.1" d="M365.561 158.423H358.276V160.67H365.561V158.423Z" fill="#6C63FF"/>
<path opacity="0.1" d="M376.206 158.423H368.921V160.67H376.206V158.423Z" fill="#6C63FF"/>
<path opacity="0.1" d="M189.52 170.86C188.954 170.138 188.439 169.377 187.977 168.583L198.869 166.792L187.069 166.888C185.939 164.422 185.323 161.751 185.258 159.038C185.193 156.326 185.68 153.628 186.69 151.11L202.491 159.333L187.921 148.591C189.282 146.219 191.117 144.154 193.309 142.525C195.502 140.896 198.005 139.738 200.664 139.123C203.323 138.508 206.079 138.449 208.762 138.95C211.444 139.451 213.995 140.502 216.254 142.036C218.514 143.57 220.434 145.555 221.894 147.866C223.355 150.178 224.325 152.767 224.743 155.471C225.162 158.176 225.02 160.937 224.326 163.584C223.633 166.231 222.403 168.706 220.714 170.855C221.6 171.977 222.363 173.192 222.989 174.478L208.863 181.841L223.932 176.781C224.992 179.917 225.254 183.269 224.696 186.533C224.137 189.797 222.775 192.87 220.734 195.473C223.038 198.41 224.471 201.937 224.87 205.653C225.269 209.368 224.618 213.122 222.99 216.483C221.362 219.845 218.825 222.679 215.667 224.662C212.509 226.645 208.858 227.697 205.132 227.697C201.406 227.697 197.756 226.645 194.598 224.662C191.44 222.679 188.902 219.845 187.274 216.483C185.647 213.122 184.995 209.368 185.394 205.653C185.793 201.937 187.227 198.41 189.531 195.473C186.779 191.963 185.283 187.628 185.283 183.164C185.283 178.699 186.779 174.364 189.531 170.855L189.52 170.86Z" fill="#6C63FF"/>
<path opacity="0.1" d="M224.972 183.172C224.978 187.637 223.481 191.973 220.724 195.478C223.028 198.415 224.461 201.943 224.86 205.658C225.259 209.374 224.607 213.127 222.98 216.489C221.352 219.85 218.814 222.685 215.657 224.668C212.499 226.651 208.848 227.702 205.122 227.702C201.396 227.702 197.746 226.651 194.588 224.668C191.43 222.685 188.892 219.85 187.264 216.489C185.637 213.127 184.985 209.374 185.384 205.658C185.783 201.943 187.217 198.415 189.52 195.478C186.862 192.093 224.972 180.935 224.972 183.172Z" fill="#6C63FF"/>
<path opacity="0.2" d="M208.308 232.999C208.343 233.054 208.369 233.11 208.404 233.166H201.664C201.699 233.11 201.724 233.054 201.76 232.999C201.181 231.986 200.881 230.836 200.892 229.669C200.891 228.87 201.029 228.077 201.301 227.326C201.674 227.387 202.138 227.453 202.673 227.508C204.236 227.665 205.811 227.665 207.375 227.508C207.819 227.463 208.288 227.397 208.762 227.326C208.763 227.338 208.763 227.35 208.762 227.362C209.028 228.102 209.163 228.882 209.161 229.669C209.176 230.835 208.881 231.984 208.308 232.999Z" fill="#3F3D56"/>
<path opacity="0.1" d="M184.087 233.176H146.603C146.517 232.959 146.441 232.731 146.376 232.508C145.054 228.245 145.209 223.658 146.815 219.494C143.151 216.956 140.445 213.256 139.131 208.99C137.817 204.723 137.972 200.137 139.57 195.969C138.816 195.445 138.098 194.87 137.421 194.249L147.299 189.31L136.074 192.883C134.267 190.861 132.892 188.491 132.031 185.917C131.17 183.343 130.843 180.62 131.069 177.915L148.585 181.087L131.503 175.137C132.107 172.468 133.253 169.952 134.869 167.748C136.486 165.543 138.538 163.696 140.898 162.322C143.258 160.948 145.875 160.077 148.586 159.763C151.296 159.449 154.042 159.699 156.652 160.497C159.262 161.295 161.68 162.625 163.755 164.402C165.83 166.179 167.517 168.367 168.712 170.827C169.906 173.288 170.582 175.969 170.697 178.703C170.812 181.438 170.364 184.166 169.381 186.719C170.554 187.535 171.638 188.473 172.615 189.518L161.274 200.741L174.184 191.43C176.119 194.115 177.355 197.242 177.782 200.527C178.208 203.812 177.811 207.152 176.626 210.244C180.199 212.721 182.864 216.306 184.212 220.448C185.559 224.59 185.516 229.062 184.087 233.176Z" fill="#6C63FF"/>
<path opacity="0.1" d="M184.087 233.176H146.603C146.517 232.958 146.441 232.73 146.375 232.508C145.054 228.244 145.209 223.657 146.814 219.493C143.283 217.039 176.408 195.098 177.084 197.228C178.401 201.495 178.246 206.081 176.645 210.248C180.214 212.728 182.874 216.313 184.218 220.454C185.562 224.595 185.516 229.064 184.087 233.176Z" fill="#6C63FF"/>
<path opacity="0.1" d="M353.826 206.201C351.549 210.037 348.047 212.99 343.887 214.58C344.065 216.002 344.093 217.439 343.973 218.866L328.071 217.91L343.6 221.315C342.573 226.074 339.848 230.293 335.936 233.176H314.293V233.738H292.262C292.307 233.546 292.353 233.359 292.403 233.176C293.213 230.124 294.732 227.308 296.837 224.958C298.941 222.609 301.571 220.793 304.511 219.661C303.948 215.23 304.886 210.739 307.173 206.907C309.46 203.075 312.964 200.125 317.123 198.53C317.005 197.619 316.949 196.701 316.957 195.782L327.224 199.83L317.073 193.849C317.363 191.154 318.197 188.546 319.525 186.185C320.853 183.824 322.647 181.759 324.797 180.116L334.15 195.296L327.143 178.598C330.96 176.468 335.372 175.661 339.693 176.302C344.015 176.943 348.004 178.996 351.044 182.143C354.084 185.29 356.003 189.354 356.505 193.707C357.007 198.059 356.064 202.456 353.821 206.216L353.826 206.201Z" fill="#6C63FF"/>
<path opacity="0.1" d="M341.228 227.332C339.877 229.619 338.077 231.608 335.936 233.176H314.293V233.738H292.262C292.307 233.546 292.353 233.358 292.403 233.176C293.213 230.124 294.732 227.308 296.837 224.958C298.941 222.609 301.571 220.793 304.511 219.661C304.324 218.208 308.602 218.406 314.298 219.367C325.433 221.239 341.985 226.062 341.228 227.332Z" fill="#6C63FF"/>
<path d="M247.432 174.205C247.432 174.205 250.131 188.966 244.077 193.778C238.023 198.59 249.193 227.468 267.748 224.103C286.304 220.738 293.821 196.505 293.821 196.505C293.821 196.505 275.265 192.66 282.141 173.087L247.432 174.205Z" fill="#EFB7B9"/>
<path opacity="0.1" d="M247.432 174.205C247.432 174.205 250.131 188.966 244.077 193.778C238.023 198.59 249.193 227.468 267.748 224.103C286.304 220.738 293.821 196.505 293.821 196.505C293.821 196.505 275.265 192.66 282.141 173.087L247.432 174.205Z" fill="black"/>
<path d="M263.828 185.034C280.788 185.034 294.537 171.244 294.537 154.233C294.537 137.222 280.788 123.432 263.828 123.432C246.868 123.432 233.119 137.222 233.119 154.233C233.119 171.244 246.868 185.034 263.828 185.034Z" fill="#EFB7B9"/>
<path d="M314.293 212.789V233.727H212.889V213.745C212.89 211.21 213.635 208.732 215.031 206.619C216.427 204.506 218.412 202.852 220.739 201.864L223.65 200.624C231.006 197.482 239.94 193.58 242.861 191.956C243.181 191.796 243.482 191.601 243.759 191.374C245.359 189.77 245.041 191.855 245.041 191.855C245.041 191.855 244.995 192.25 244.965 192.938C244.794 197.649 245.47 216.179 267.113 214.636C288.231 213.118 289.159 198.828 288.968 194.623C288.956 194.233 288.922 193.845 288.867 193.459C288.867 193.348 290.683 193.965 293.145 194.856C297.569 196.49 304.072 199.121 305.823 200.361C306.368 200.74 307.029 201.145 307.745 201.545C309.739 202.661 311.399 204.293 312.552 206.27C313.706 208.247 314.31 210.498 314.304 212.789H314.293Z" fill="#6C63FF"/>
<path opacity="0.1" d="M293.14 194.856C291.354 203.165 285.744 218.73 265.508 219.145C243.961 219.57 242.72 198.074 242.851 191.977C243.174 191.817 243.477 191.62 243.754 191.39C245.353 189.786 245.035 191.87 245.035 191.87C245.035 191.87 242.316 216.417 267.107 214.641C291.898 212.865 288.861 193.464 288.861 193.464C288.861 193.348 290.678 193.945 293.14 194.856Z" fill="black"/>
<path d="M227.479 155.756C229.497 155.098 231.904 156.211 233.029 157.78C234.154 159.349 234.31 161.246 234.446 163.063C235.783 163.346 236.535 161.828 236.656 160.69C237.16 156.029 237.186 151.283 238.745 146.789C240.303 142.296 243.709 137.944 248.946 136.214C250.726 135.594 252.629 135.412 254.495 135.682C255.6 135.87 256.644 136.254 257.749 136.436C261.568 137.069 265.73 135.252 269.317 136.517C271.562 137.312 273.01 139.149 274.039 140.99C274.498 141.979 275.119 142.884 275.876 143.667C277.389 145.034 279.791 145.393 281.97 145.823C284.15 146.253 286.541 146.992 287.474 148.682C288.317 150.2 287.696 151.971 287.414 153.631C286.982 156.246 287.42 158.931 288.66 161.271C289.063 162.041 289.881 162.911 290.844 162.663C291.283 162.515 291.654 162.213 291.889 161.813C294.411 158.271 294.33 153.676 297.473 150.514C298.528 149.456 299.885 148.626 300.909 147.548C301.684 146.763 302.253 145.798 302.563 144.738C302.874 143.678 302.918 142.557 302.69 141.476C302.125 139.042 300.167 137.013 298.619 134.898C296.583 132.188 295.1 129.101 294.255 125.815C294.106 125.435 294.106 125.012 294.255 124.631C294.551 124.244 294.933 123.93 295.37 123.715C296.226 123.146 296.845 122.283 297.112 121.288C297.378 120.292 297.274 119.234 296.818 118.311C295.94 116.474 293.967 115.113 291.803 114.293C289.639 113.473 287.262 113.124 284.911 112.775C283.368 113.003 281.556 112.117 281.077 110.878C280.865 110.326 280.865 109.729 280.648 109.177C280.23 108.12 279.024 107.371 277.727 107.113C276.409 106.896 275.058 106.991 273.782 107.391C272.329 107.801 270.644 108.403 269.378 107.705C268.712 107.325 268.339 106.637 267.622 106.329C266.169 105.706 264.636 106.961 263.586 107.998C262.568 109.079 261.322 109.918 259.939 110.453C258.481 110.959 256.685 110.959 255.428 110.154C254.419 109.511 253.915 108.479 253.113 107.659C251.796 106.308 249.712 105.575 247.634 105.408C245.549 105.298 243.461 105.527 241.449 106.086C237.608 107.019 233.938 108.556 230.577 110.64C228.897 111.697 227.287 112.932 226.41 114.526C225.786 115.769 225.464 117.142 225.471 118.534C225.315 122.89 226.758 127.485 230.516 130.536C228.226 131.498 227.449 133.851 226.914 135.94C226.056 139.27 225.194 142.66 225.517 146.061C225.678 147.817 226.157 149.572 225.9 151.318C225.779 152.163 225.486 152.993 225.557 153.848C225.651 154.323 225.884 154.758 226.226 155.098C226.569 155.438 227.005 155.667 227.479 155.756Z" fill="#454B69"/>
<g opacity="0.1">
<path opacity="0.1" d="M302.246 140.16C301.913 140.881 301.465 141.543 300.919 142.118C299.91 143.196 298.538 144.026 297.483 145.089C294.34 148.246 294.406 152.856 291.898 156.388C291.663 156.787 291.292 157.087 290.854 157.233C289.891 157.481 289.073 156.611 288.67 155.842C288.179 154.906 287.812 153.911 287.575 152.881C287.521 153.138 287.471 153.396 287.424 153.656C286.992 156.271 287.43 158.955 288.67 161.296C289.073 162.065 289.891 162.936 290.854 162.688C291.293 162.539 291.663 162.238 291.898 161.838C294.421 158.296 294.34 153.701 297.483 150.538C298.538 149.481 299.895 148.651 300.919 147.573C301.694 146.788 302.262 145.822 302.573 144.763C302.884 143.703 302.928 142.582 302.7 141.501C302.592 141.04 302.44 140.591 302.246 140.16Z" fill="black"/>
<path opacity="0.1" d="M295.39 118.31C294.952 118.522 294.57 118.834 294.275 119.221C294.126 119.602 294.126 120.025 294.275 120.405C294.566 121.552 294.938 122.677 295.39 123.77C296.256 123.196 296.881 122.322 297.144 121.314C297.407 120.307 297.291 119.237 296.817 118.31C296.675 118.009 296.506 117.721 296.313 117.45C296.05 117.782 295.739 118.072 295.39 118.31Z" fill="black"/>
<path opacity="0.1" d="M230.511 125.132C227.909 122.974 226.193 119.929 225.693 116.58C225.563 117.247 225.488 117.924 225.471 118.604C225.309 121.819 226.156 125.005 227.893 127.712C228.421 126.559 229.352 125.641 230.511 125.132Z" fill="black"/>
<path opacity="0.1" d="M287.424 148.201C287.706 146.541 288.327 144.775 287.484 143.252C286.551 141.562 284.165 140.818 281.98 140.393C279.796 139.968 277.409 139.603 275.886 138.237C275.129 137.454 274.508 136.549 274.049 135.56C273.04 133.718 271.572 131.882 269.327 131.087C265.74 129.822 261.578 131.639 257.759 131.006C256.654 130.824 255.61 130.44 254.505 130.252C252.641 129.974 250.738 130.147 248.956 130.758C243.719 132.489 240.313 136.83 238.755 141.334C237.196 145.838 237.16 150.574 236.666 155.234C236.545 156.373 235.793 157.891 234.456 157.607C234.32 155.791 234.154 153.893 233.039 152.325C231.924 150.756 229.542 149.638 227.489 150.301C226.867 150.16 226.316 149.801 225.935 149.289C226.005 149.962 225.995 150.641 225.905 151.313C225.784 152.158 225.491 152.987 225.562 153.843C225.654 154.317 225.886 154.753 226.228 155.094C226.57 155.435 227.005 155.665 227.479 155.755C229.497 155.098 231.903 156.211 233.028 157.779C234.154 159.348 234.31 161.246 234.446 163.062C235.783 163.346 236.535 161.828 236.656 160.689C237.16 156.029 237.186 151.282 238.744 146.789C240.303 142.295 243.709 137.944 248.945 136.213C250.726 135.593 252.629 135.411 254.495 135.682C255.6 135.869 256.644 136.254 257.749 136.436C261.568 137.068 265.73 135.252 269.317 136.517C271.562 137.311 273.01 139.148 274.039 140.99C274.498 141.979 275.119 142.884 275.876 143.667C277.389 145.033 279.791 145.392 281.97 145.822C284.149 146.252 286.364 146.941 287.363 148.509C287.388 148.423 287.403 148.312 287.424 148.201Z" fill="black"/>
<path opacity="0.1" d="M225.915 145.904C226.033 144.53 225.952 143.146 225.673 141.795C225.457 143.22 225.41 144.665 225.531 146.101C225.562 146.47 225.612 146.835 225.663 147.204C225.723 146.769 225.834 146.339 225.915 145.904Z" fill="black"/>
</g>
<path d="M458.454 201.742H413.049V233.343H458.454V201.742Z" fill="white"/>
<path opacity="0.1" d="M454.408 225.586C453.76 226.679 452.763 227.519 451.578 227.97C451.629 228.374 451.637 228.783 451.603 229.189L447.063 228.916L451.482 229.887C451.187 231.239 450.412 232.436 449.303 233.257H443.158V233.419H436.892C436.892 233.364 436.892 233.313 436.932 233.257C437.067 232.743 437.274 232.25 437.548 231.795C438.195 230.704 439.19 229.864 440.373 229.412C440.212 228.151 440.478 226.873 441.128 225.783C441.779 224.692 442.776 223.853 443.96 223.4C443.925 223.142 443.91 222.881 443.914 222.621L446.836 223.775L443.945 222.074C444.026 221.306 444.264 220.563 444.643 219.89C445.022 219.217 445.535 218.629 446.149 218.163L448.808 222.484L446.815 217.728C447.901 217.135 449.151 216.916 450.373 217.104C451.595 217.291 452.722 217.876 453.581 218.768C454.44 219.66 454.983 220.81 455.128 222.042C455.273 223.273 455.011 224.518 454.383 225.586H454.408Z" fill="#6C63FF"/>
<path opacity="0.1" d="M450.821 231.613C450.434 232.263 449.919 232.828 449.308 233.272H443.158V233.434H436.892C436.892 233.379 436.892 233.328 436.932 233.272C437.067 232.758 437.274 232.265 437.548 231.81C438.195 230.719 439.19 229.879 440.373 229.427C440.322 229.017 441.538 229.072 443.158 229.346C446.326 229.882 451.038 231.253 450.821 231.613Z" fill="#6C63FF"/>
<path opacity="0.1" d="M414.775 225.586C415.422 226.679 416.42 227.519 417.605 227.97C417.554 228.374 417.545 228.783 417.58 229.189L422.12 228.916L417.701 229.887C417.996 231.239 418.77 232.436 419.88 233.257H426.04V233.419H432.311C432.311 233.364 432.281 233.313 432.271 233.257C432.132 232.744 431.925 232.253 431.655 231.795C431.005 230.705 430.008 229.865 428.825 229.412C428.986 228.151 428.72 226.873 428.07 225.783C427.419 224.692 426.422 223.853 425.238 223.4C425.272 223.142 425.289 222.882 425.288 222.621L422.367 223.775L425.253 222.074C425.171 221.306 424.934 220.563 424.554 219.89C424.175 219.217 423.663 218.629 423.048 218.163L420.39 222.484L422.382 217.728C421.297 217.135 420.047 216.916 418.825 217.104C417.603 217.291 416.476 217.876 415.617 218.768C414.758 219.66 414.214 220.81 414.069 222.042C413.925 223.273 414.186 224.518 414.815 225.586H414.775Z" fill="#6C63FF"/>
<path opacity="0.1" d="M418.362 231.613C418.748 232.263 419.263 232.828 419.875 233.272H426.035V233.434H432.306C432.306 233.379 432.276 233.328 432.265 233.272C432.127 232.759 431.92 232.268 431.65 231.81C431 230.72 430.003 229.88 428.82 229.427C428.87 229.017 427.654 229.072 426.035 229.346C422.857 229.882 418.129 231.253 418.362 231.613Z" fill="#6C63FF"/>
<path d="M440.237 208.705H430.091V220.04H440.237V208.705Z" fill="#464353"/>
<path opacity="0.1" d="M440.237 208.705H430.091V220.04H440.237V208.705Z" fill="black"/>
<path d="M425.768 230.413L425.561 233.358H428.457L428.638 229.467L425.768 230.413Z" fill="#A1616A"/>
<path d="M441.024 230.413L440.585 233.358H443.238L443.405 229.467L441.024 230.413Z" fill="#A1616A"/>
<path d="M432.624 214.378C432.624 214.378 432.523 215.85 432.17 216.235C431.817 216.619 435.323 220.025 438.083 216.66C438.083 216.66 436.897 215.648 437.174 214.514C437.452 213.381 432.624 214.378 432.624 214.378Z" fill="#A1616A"/>
<path opacity="0.1" d="M432.624 214.378C432.624 214.378 432.523 215.85 432.17 216.235C431.817 216.619 435.323 220.025 438.083 216.66C438.083 216.66 436.897 215.648 437.174 214.514C437.452 213.381 432.624 214.378 432.624 214.378Z" fill="black"/>
<path d="M435.161 215.694C437.964 215.694 440.237 213.415 440.237 210.603C440.237 207.792 437.964 205.513 435.161 205.513C432.358 205.513 430.086 207.792 430.086 210.603C430.086 213.415 432.358 215.694 435.161 215.694Z" fill="#A1616A"/>
<path d="M434.899 217.535C434.899 217.535 432.77 217.5 432.452 215.552C432.03 215.917 431.586 216.255 431.12 216.564C430.914 216.635 428.88 217.788 428.497 217.859C428.122 217.935 427.774 218.11 427.488 218.365C426.987 218.76 426.577 219.26 426.287 219.83C425.997 220.399 425.833 221.025 425.808 221.664C425.737 223.947 425.46 228.405 425.46 228.405L425.566 230.019V231.071C425.566 231.071 427.453 231.577 428.593 230.565C428.593 230.565 428.593 230.181 428.805 230.059C429.017 229.938 429.047 229.427 429.012 229.214C428.993 228.899 428.993 228.583 429.012 228.268C429.048 228.439 429.149 228.59 429.294 228.688C429.378 228.973 429.402 229.273 429.365 229.568C429.259 229.776 429.153 230.267 429.259 230.373C429.312 230.467 429.334 230.576 429.322 230.683C429.309 230.791 429.262 230.891 429.188 230.97C428.996 231.24 428.843 231.537 428.734 231.85C428.734 231.85 428.628 232.478 428.522 232.549C428.403 232.805 428.321 233.078 428.28 233.358H440.893C440.67 232.717 440.501 232.059 440.388 231.39C440.423 231.076 440.075 229.776 440.317 229.427C440.674 228.964 440.871 228.397 440.877 227.812L441.019 229.179L440.635 232.215C440.635 232.215 442.976 232.954 443.223 232.493C443.485 231.692 443.684 230.871 443.819 230.039C443.819 230.039 444.379 227.509 444.52 227.16C444.661 226.811 444.974 219.792 443.082 218.775C441.19 217.758 437.623 216.007 437.533 216.093C437.331 216.604 436.957 217.028 436.476 217.292C435.995 217.555 435.437 217.641 434.899 217.535Z" fill="#6C63FF"/>
<path opacity="0.1" d="M428.82 224.396C428.459 224.914 428.305 225.547 428.386 226.173C428.471 226.792 428.673 227.39 428.981 227.934" stroke="black" stroke-miterlimit="10"/>
<path opacity="0.1" d="M441.074 224.877C441.165 225.134 441.236 225.398 441.286 225.666C441.377 226.001 441.394 226.352 441.336 226.695C441.279 227.037 441.148 227.363 440.953 227.65" stroke="black" stroke-miterlimit="10"/>
<path d="M432.891 207.122C433.288 207.016 433.709 207.059 434.077 207.243C434.438 207.43 434.816 207.581 435.207 207.694C435.469 207.749 435.711 207.749 436.004 207.79C436.491 207.878 436.941 208.111 437.295 208.459C437.649 208.806 437.892 209.251 437.992 209.738C438.219 210.983 437.487 212.207 437.487 213.477C437.49 214.204 437.745 214.907 438.208 215.466C438.598 215.822 438.937 216.229 439.217 216.675C439.364 216.999 439.394 217.369 439.535 217.687C439.844 218.261 440.355 218.697 440.968 218.912C441.576 219.117 442.162 219.381 442.719 219.701C443.728 220.374 444.323 221.665 445.493 221.943C445.552 221.968 445.614 221.981 445.678 221.981C445.741 221.981 445.804 221.968 445.862 221.943C445.915 221.901 445.958 221.847 445.988 221.785C446.017 221.724 446.033 221.657 446.033 221.589C446.062 221.341 446.035 221.09 445.954 220.854C445.873 220.619 445.74 220.404 445.564 220.228C445.277 219.939 444.858 219.722 444.767 219.332C444.676 218.942 444.918 218.608 445.05 218.254C445.468 217.105 444.772 215.856 443.98 214.925C443.188 213.993 442.239 213.072 442.048 211.888C442.002 211.489 441.987 211.086 442.002 210.684C441.988 209.856 441.845 209.035 441.579 208.25C441.451 207.826 441.245 207.43 440.973 207.081C440.721 206.778 440.398 206.545 440.136 206.251C439.787 205.769 439.474 205.261 439.197 204.733C438.796 204.108 438.249 203.59 437.602 203.226C436.956 202.862 436.23 202.662 435.489 202.644C434.072 202.644 432.73 203.271 431.529 204.025C431.087 204.267 430.705 204.604 430.409 205.012C429.904 205.816 430.056 206.879 429.763 207.79C429.471 208.701 428.779 209.374 428.537 210.264C428.463 210.526 428.451 210.801 428.502 211.069C428.592 211.351 428.712 211.622 428.86 211.878C429.128 212.53 429.28 213.223 429.309 213.928C429.385 214.778 429.42 215.694 428.976 216.417C428.632 216.856 428.203 217.221 427.715 217.49C428.21 217.893 428.841 218.087 429.476 218.031C430.434 218.072 431.544 218.031 432.139 217.272C432.496 216.727 432.639 216.07 432.543 215.425C432.496 214.721 432.353 214.027 432.119 213.361C431.791 212.425 431.287 211.539 431.14 210.558C431.083 210.204 431.098 209.841 431.185 209.494C431.272 209.146 431.428 208.819 431.645 208.534C431.827 208.306 432.149 208.189 432.301 207.947C432.492 207.623 432.437 207.284 432.891 207.122Z" fill="#464353"/>
<g opacity="0.1">
<path opacity="0.1" d="M428.86 211.813C429.128 212.464 429.28 213.158 429.309 213.862C429.309 214.085 429.345 214.312 429.35 214.54C429.403 214.045 429.403 213.547 429.35 213.052C429.319 212.356 429.167 211.671 428.901 211.028C428.756 210.772 428.636 210.503 428.542 210.224C428.468 210.484 428.456 210.758 428.507 211.023C428.597 211.298 428.715 211.563 428.86 211.813Z" fill="black"/>
<path opacity="0.1" d="M432.185 216.477C431.59 217.231 430.48 217.277 429.521 217.241C429.116 217.243 428.712 217.181 428.325 217.059C428.134 217.216 427.927 217.363 427.725 217.505C428.22 217.907 428.851 218.101 429.486 218.046C430.444 218.087 431.554 218.046 432.15 217.287C432.491 216.781 432.638 216.168 432.563 215.562C432.518 215.895 432.388 216.21 432.185 216.477Z" fill="black"/>
<path opacity="0.1" d="M444.802 218.502C444.816 218.56 444.837 218.616 444.863 218.669C444.924 218.527 444.994 218.381 445.05 218.234C445.171 217.9 445.205 217.542 445.151 217.191C445.133 217.272 445.111 217.351 445.085 217.429C444.954 217.783 444.717 218.138 444.802 218.502Z" fill="black"/>
<path opacity="0.1" d="M438.022 209.981C438.08 209.634 438.08 209.28 438.022 208.933C437.923 208.446 437.68 208 437.326 207.653C436.972 207.306 436.522 207.073 436.034 206.985C435.767 206.94 435.499 206.94 435.237 206.889C434.847 206.774 434.469 206.623 434.107 206.439C433.741 206.252 433.319 206.207 432.921 206.312C432.467 206.474 432.523 206.818 432.321 207.152C432.175 207.395 431.847 207.516 431.665 207.739C431.265 208.274 431.085 208.942 431.161 209.606C431.224 209.219 431.386 208.855 431.63 208.549C431.812 208.321 432.134 208.205 432.286 207.962C432.488 207.623 432.432 207.284 432.886 207.122C433.283 207.016 433.705 207.059 434.072 207.243C434.433 207.43 434.811 207.581 435.202 207.694C435.464 207.749 435.706 207.749 435.999 207.79C436.486 207.878 436.936 208.111 437.29 208.459C437.644 208.806 437.887 209.251 437.987 209.738C438.003 209.818 438.015 209.899 438.022 209.981Z" fill="black"/>
<path opacity="0.1" d="M445.877 221.118C445.759 221.165 445.627 221.165 445.509 221.118C444.338 220.84 443.733 219.549 442.734 218.876C442.176 218.56 441.59 218.296 440.983 218.087C440.371 217.875 439.859 217.439 439.551 216.868C439.409 216.539 439.379 216.174 439.233 215.856C438.952 215.409 438.613 215.002 438.224 214.646C437.803 214.144 437.549 213.524 437.497 212.87C437.467 213.066 437.452 213.264 437.452 213.462C437.461 214.199 437.729 214.908 438.209 215.466C438.598 215.822 438.937 216.229 439.218 216.675C439.364 216.999 439.394 217.369 439.535 217.687C439.844 218.261 440.355 218.697 440.968 218.912C441.576 219.117 442.163 219.381 442.719 219.701C443.728 220.374 444.323 221.665 445.494 221.943C445.552 221.968 445.614 221.981 445.678 221.981C445.741 221.981 445.804 221.968 445.862 221.943C445.915 221.9 445.958 221.846 445.987 221.785C446.017 221.724 446.033 221.657 446.033 221.589C446.056 221.398 446.046 221.204 446.003 221.017C445.971 221.061 445.927 221.096 445.877 221.118Z" fill="black"/>
</g>
<path opacity="0.1" d="M424.168 204.065H417.68V213.361H424.168V204.065Z" fill="#6C63FF"/>
<path opacity="0.1" d="M423.24 205.396H418.609V212.034H423.24V205.396Z" fill="#6C63FF"/>
<path opacity="0.1" d="M456.134 205.462H445.479V211.038H456.134V205.462Z" fill="#6C63FF"/>
<path opacity="0.1" d="M454.746 206.19H446.871V210.314H454.746V206.19Z" fill="#6C63FF"/>
</g>
<defs>
<clipPath id="clip0">
<rect width="583" height="353" fill="white"/>
</clipPath>
</defs>
</svg>
