<svg width="112" height="112" viewBox="0 0 112 112" fill="none" xmlns="http://www.w3.org/2000/svg">
<path fill-rule="evenodd" clip-rule="evenodd" d="M98 93.3335V28.0002C98 22.8668 93.8 18.6668 88.6667 18.6668H84V9.3335H74.6667V18.6668H37.3333V9.3335H28V18.6668H23.3333C18.1533 18.6668 14.0467 22.8668 14.0467 28.0002L14 93.3335C14 98.4668 18.1533 102.667 23.3333 102.667H88.6667C93.8 102.667 98 98.4668 98 93.3335ZM42 60.6668V51.3335H32.6667V60.6668H42ZM23.3333 37.3335H88.6667V28.0002H23.3333V37.3335ZM88.6667 46.6668V93.3335H23.3333V46.6668H88.6667ZM79.3333 60.6668V51.3335H70V60.6668H79.3333ZM60.6667 60.6668H51.3333V51.3335H60.6667V60.6668Z" fill="#EB5757"/>
</svg>
