<svg width="112" height="112" viewBox="0 0 112 112" fill="none" xmlns="http://www.w3.org/2000/svg">
<path fill-rule="evenodd" clip-rule="evenodd" d="M41.9999 56.0002C51.0065 56.0002 58.3332 48.6735 58.3332 39.6668C58.3332 30.6602 51.0065 23.3335 41.9999 23.3335C32.9932 23.3335 25.6665 30.6602 25.6665 39.6668C25.6665 48.6735 32.9932 56.0002 41.9999 56.0002ZM9.33325 80.5002C9.33325 69.6268 31.0799 64.1668 41.9999 64.1668C52.9199 64.1668 74.6666 69.6268 74.6666 80.5002V88.6668H9.33325V80.5002ZM41.9993 73.5002C33.646 73.5002 24.1726 76.6268 20.2526 79.3335H63.746C59.826 76.6268 50.3526 73.5002 41.9993 73.5002ZM49 39.6668C49 35.7935 45.8733 32.6668 42 32.6668C38.1266 32.6668 35 35.7935 35 39.6668C35 43.5402 38.1266 46.6668 42 46.6668C45.8733 46.6668 49 43.5402 49 39.6668ZM74.8534 64.4468C80.2667 68.3668 84.0001 73.5935 84.0001 80.5002V88.6668H102.667V80.5002C102.667 71.0735 86.3334 65.7068 74.8534 64.4468ZM86.3333 39.6668C86.3333 48.6735 79.0066 56.0002 70 56.0002C67.48 56.0002 65.1466 55.3935 63 54.3668C65.94 50.2135 67.6666 45.1268 67.6666 39.6668C67.6666 34.2068 65.94 29.1202 63 24.9668C65.1466 23.9402 67.48 23.3335 70 23.3335C79.0066 23.3335 86.3333 30.6602 86.3333 39.6668Z" fill="#27AE60"/>
</svg>
