<svg width="26" height="26" viewBox="0 0 26 26" fill="none" xmlns="http://www.w3.org/2000/svg">
<path fill-rule="evenodd" clip-rule="evenodd" d="M8.66666 10.1989L1.40063 2.93287L2.9327 1.4008L24.5994 23.0675L23.0673 24.5995L18.3144 19.8467C17.1157 20.7785 15.6658 21.4024 14.0833 21.5998V22.7502H17.3333V24.9168H8.66666V22.7502H11.9167V21.5998C7.64149 21.0667 4.33333 17.4197 4.33333 13.0002V10.8335H6.49999V13.0002C6.49999 16.59 9.41014 19.5002 13 19.5002C14.4038 19.5002 15.7037 19.0551 16.7662 18.2985L15.2013 16.7335C14.5562 17.1147 13.8036 17.3335 13 17.3335C10.6068 17.3335 8.66666 15.3934 8.66666 13.0002V10.1989ZM13.5612 15.0934C13.3822 15.1413 13.1941 15.1668 13 15.1668C11.8034 15.1668 10.8333 14.1968 10.8333 13.0002V12.3656L13.5612 15.0934ZM15.1667 5.41683V10.6014L17.3333 12.7681V5.41683C17.3333 3.0236 15.3932 1.0835 13 1.0835C11.0081 1.0835 9.33008 2.42747 8.82332 4.25809L10.8333 6.26809V5.41683C10.8333 4.22021 11.8034 3.25016 13 3.25016C14.1966 3.25016 15.1667 4.22021 15.1667 5.41683ZM20.9716 16.4064L19.2733 14.7081C19.4211 14.1638 19.5 13.5912 19.5 13.0002V10.8335H21.6667V13.0002C21.6667 14.2094 21.419 15.3608 20.9716 16.4064Z" fill="#BEBEBE"/>
</svg>
