<svg width="26" height="26" viewBox="0 0 26 26" fill="none" xmlns="http://www.w3.org/2000/svg">
<path fill-rule="evenodd" clip-rule="evenodd" d="M12.9999 1.0835C15.3932 1.0835 17.3333 3.0236 17.3333 5.41683V13.0002C17.3333 15.3934 15.3932 17.3335 12.9999 17.3335C10.6067 17.3335 8.66659 15.3934 8.66659 13.0002V5.41683C8.66659 3.0236 10.6067 1.0835 12.9999 1.0835ZM14.0833 21.5998V22.7502H17.3333V24.9168H8.66658V22.7502H11.9166V21.5998C7.64141 21.0667 4.33325 17.4197 4.33325 13.0002V10.8335H6.49992V13.0002C6.49992 16.59 9.41007 19.5002 12.9999 19.5002C16.5898 19.5002 19.4999 16.59 19.4999 13.0002V10.8335H21.6666V13.0002C21.6666 17.4197 18.3584 21.0667 14.0833 21.5998ZM10.8333 5.41683C10.8333 4.22021 11.8033 3.25016 12.9999 3.25016C14.1965 3.25016 15.1666 4.22021 15.1666 5.41683V13.0002C15.1666 14.1968 14.1965 15.1668 12.9999 15.1668C11.8033 15.1668 10.8333 14.1968 10.8333 13.0002V5.41683Z" fill="#BEBEBE"/>
</svg>
