<svg width="26" height="26" viewBox="0 0 26 26" fill="none" xmlns="http://www.w3.org/2000/svg">
<path fill-rule="evenodd" clip-rule="evenodd" d="M5.41667 15.1668C4.22005 15.1668 3.25 14.1968 3.25 13.0002C3.25 11.8035 4.22005 10.8335 5.41667 10.8335C6.61328 10.8335 7.58333 11.8035 7.58333 13.0002C7.58333 14.1968 6.61328 15.1668 5.41667 15.1668ZM13 15.1668C11.8034 15.1668 10.8333 14.1968 10.8333 13.0002C10.8333 11.8035 11.8034 10.8335 13 10.8335C14.1966 10.8335 15.1667 11.8035 15.1667 13.0002C15.1667 14.1968 14.1966 15.1668 13 15.1668ZM18.4167 13.0002C18.4167 14.1968 19.3867 15.1668 20.5833 15.1668C21.78 15.1668 22.75 14.1968 22.75 13.0002C22.75 11.8035 21.78 10.8335 20.5833 10.8335C19.3867 10.8335 18.4167 11.8035 18.4167 13.0002Z" fill="#BEBEBE"/>
</svg>
