<svg width="26" height="26" viewBox="0 0 26 26" fill="none" xmlns="http://www.w3.org/2000/svg">
<g clip-path="url(#clip0)">
<path d="M19.4968 19.5H6.50217L6.5 18.8251C6.5 17.4612 6.60833 16.6736 8.22033 16.3009C10.0447 15.8795 11.843 15.5036 10.9774 13.9078C8.41425 9.18125 10.2472 6.5 12.9989 6.5C15.6975 6.5 17.5771 9.08158 15.0204 13.9089C14.1808 15.4949 15.9153 15.8719 17.7775 16.302C19.3917 16.6747 19.4989 17.4633 19.4989 18.8294L19.4968 19.5ZM24.7087 17.1015C23.3112 16.7787 22.0112 16.4959 22.6406 15.3064C24.557 11.6859 23.1487 9.75 21.1239 9.75C19.7535 9.75 18.6886 10.6351 18.6886 12.2677C18.6886 16.4959 21.1456 14.1852 21.1218 19.5H25.9978L26 18.9984C26 17.9736 25.9198 17.381 24.7087 17.1015ZM0.00216667 19.5H4.87825C4.8555 14.1852 7.31142 16.497 7.31142 12.2677C7.31142 10.6351 6.2465 9.75 4.87608 9.75C2.85133 9.75 1.443 11.6859 3.3605 15.3064C3.98992 16.497 2.68992 16.7787 1.29242 17.1015C0.0801667 17.381 0 17.9736 0 18.9984L0.00216667 19.5V19.5Z" fill="#BEBEBE"/>
</g>
<defs>
<clipPath id="clip0">
<rect width="26" height="26" fill="white"/>
</clipPath>
</defs>
</svg>
