<svg width="26" height="26" viewBox="0 0 26 26" fill="none" xmlns="http://www.w3.org/2000/svg">
<path fill-rule="evenodd" clip-rule="evenodd" d="M1.84945 0.317383L0.317383 1.84945L3.88468 5.41674H3.25008C2.05346 5.41674 1.08341 6.38679 1.08341 7.58341V18.4167C1.08341 19.6134 2.05346 20.5834 3.25008 20.5834H16.2501C17.0107 20.5834 17.6798 20.1914 18.0664 19.5985L24.1507 25.6828L25.6828 24.1507L1.84945 0.317383ZM16.2501 17.7821L6.05134 7.58341H3.25008V18.4167H16.2501V17.7821ZM18.4167 9.08054L24.9167 5.83054V19.901L22.7501 17.7344V9.33628L18.4167 11.5029V14.0843L16.2501 11.9176V7.58341H11.9159L9.74923 5.41674H16.2501C17.4467 5.41674 18.4167 6.38679 18.4167 7.58341V9.08054Z" fill="#BEBEBE"/>
</svg>
